<svg xmlns="http://www.w3.org/2000/svg" width="437.291" height="441.597"><title>Silhouette d&apos;un humain asexué, de face et de dos</title><g transform="translate(-71.99 -62.034)" stroke="#000" fill="none"><g><path d="M424.788 299.234s-.055 1.157-.07 1.736c-.057 2.291-.094 4.584-.069 6.876.024 2.177.049 4.357.208 6.529.208 2.835.616 5.653.972 8.474.361 2.852.765 5.698 1.181 8.543.352 2.411.786 4.809 1.111 7.223.349 2.587.694 5.177.903 7.779.167 2.079.2 4.167.278 6.251.115 3.078.307 6.157.278 9.238-.027 2.828-.21 5.653-.417 8.474-.122 1.67-.444 3.327-.486 5.001-.037 1.483.012 2.975.208 4.445.141 1.058.389 2.103.695 3.125.58 1.945 1.381 3.818 2.153 5.695.714 1.735 1.518 3.431 2.292 5.14.663 1.463 1.477 2.862 2.014 4.376.344.968.636 1.967.764 2.987.13 1.034.036 2.084 0 3.125-.058 1.693-.224 3.381-.347 5.07-.131 1.783-.221 3.571-.417 5.348-.126 1.139-.405 2.26-.486 3.403-.079 1.108-.09 2.226 0 3.334.081 1.005.332 1.99.486 2.987.147.948.211 1.911.417 2.848.351 1.603.927 3.148 1.389 4.723.441 1.504.912 3.001 1.32 4.515.378 1.404.742 2.814 1.042 4.237.33 1.564.542 3.151.833 4.723.464 2.505 1.049 4.987 1.459 7.501.285 1.752.437 3.523.695 5.279.126.859.369 1.703.417 2.57.026.463-.021.928-.07 1.389-.091.863-.264 1.716-.417 2.57-.17.952-.346 1.904-.556 2.848-.207.932-.407 1.868-.695 2.778-.194.615-.434 1.216-.695 1.806l-.833 1.667c-.26.59-.532 1.182-.695 1.806-.124.475-.214.967-.208 1.459.007.563.152 1.118.278 1.667.092.4.238.785.347 1.181.147.53.388 1.048.417 1.597.025.468-.222.921-.208 1.389.016.567.289 1.102.347 1.667.062.599.025 1.204 0 1.806l-.07.833c-.005.394.058.787.07 1.181.01.347-.056.699 0 1.042.059.361.221.698.347 1.042.129.351.275.696.417 1.042.228.557.519 1.091.695 1.667.172.565.347 1.736.347 1.736" stroke-linecap="round"/><path d="M445.555 471.691s.364 3.978.417 5.973c.038 1.412-.005 2.826-.07 4.237-.056 1.229-.016 2.479-.278 3.681-.242 1.109-.773 2.135-1.181 3.195-.313.815-.692 1.605-.972 2.431-.247.729-.431 1.478-.625 2.223-.175.668-.346 1.338-.486 2.014-.191.92-.405 1.842-.486 2.778-.034.392-.095.799 0 1.181.107.432.387.805.625 1.181.186.293.358.611.625.833.477.398 1.074.647 1.667.833 1.205.38 2.489.485 3.751.556 1.341.076 2.704.085 4.028-.139 1.004-.17 2.004-.454 2.917-.903.686-.337 1.372-.745 1.875-1.32.396-.452.646-1.027.833-1.597.095-.289.009-.627.139-.903.119-.252.323-.472.556-.625.244-.161.565-.161.833-.278.58-.251 1.137-.559 1.667-.903.832-.539 1.565-1.217 2.361-1.806.32-.237.7-.404.972-.695.299-.318.564-.695.695-1.111.139-.442.117-.928.07-1.389-.056-.547-.223-1.082-.417-1.597-.146-.388-.36-.746-.556-1.111-.176-.329-.307-.694-.556-.972-.287-.321-.64-.61-1.042-.764-.217-.083-.464-.035-.695-.069-.234-.035-.459-.154-.695-.139-.146.009-.417.139-.417.139" stroke-linecap="round"/><path d="M461.251 486.416s-.328-.427-.556-.556c-.332-.188-.732-.231-1.111-.278-.391-.048-1.181 0-1.181 0" stroke-linecap="round"/><path d="M449.722 476.692s-.331 2.077-.347 3.125c-.023 1.463.186 2.921.347 4.376.163 1.464.272 2.945.625 4.376.265 1.074 1.111 3.125 1.111 3.125" stroke-linecap="round"/><path d="M460.21 486.416s-1.262-.609-1.806-1.042c-.372-.296-.972-1.042-.972-1.042" stroke-linecap="round"/><path d="M456.39 486.833s.708-1.458.972-2.223c.211-.61.415-1.234.486-1.875.082-.737.028-1.488-.07-2.223-.119-.896-.388-1.767-.625-2.639-.165-.608-.425-1.19-.556-1.806-.121-.57-.146-1.157-.208-1.736-.079-.74-.211-1.478-.208-2.223.005-1.373.234-2.737.417-4.098.187-1.396.457-2.779.695-4.167.226-1.321.416-2.648.695-3.959.337-1.587.809-3.143 1.181-4.723.467-1.985.913-3.975 1.32-5.973.53-2.608 1.013-5.225 1.459-7.848.357-2.102.58-4.225.972-6.32.336-1.794.834-3.556 1.181-5.348.375-1.936.777-3.872.972-5.834.205-2.051.218-4.12.208-6.182-.007-1.622-.082-3.245-.208-4.862-.096-1.231-.254-2.457-.417-3.681-.263-1.973-.526-3.949-.903-5.904-.405-2.101-1.029-4.155-1.459-6.251-.401-1.958-.588-3.958-1.042-5.904-.263-1.127-.717-2.205-.972-3.334-.223-.984-.405-1.981-.486-2.987-.097-1.2-.043-2.409 0-3.612.046-1.299.251-2.59.278-3.889.031-1.528-.099-3.056-.139-4.584l-.07-3.195c-.04-1.551-.123-3.102-.139-4.653-.024-2.408 0-4.816.07-7.223.042-1.436.149-2.87.208-4.306.14-3.402.322-6.805.347-10.21.009-1.227-.07-3.681-.07-3.681" stroke-linecap="round"/><path d="M440.484 368.759s-.08 5.835 0 8.751c.058 2.109.135 4.221.347 6.32.191 1.886.833 5.626.833 5.626" stroke-linecap="round"/><path d="M454.514 374.246l1.806 7.084" stroke-linecap="round"/><path d="M460.001 353.826s1.052-6.624 1.597-9.932c.543-3.29 1.212-6.56 1.667-9.863.476-3.46.788-6.941 1.111-10.418.271-2.914.516-5.831.695-8.751.198-3.238.361-6.48.417-9.724.046-2.708.069-5.421-.07-8.126-.164-3.205-.586-6.391-.903-9.585-.264-2.664-.555-5.325-.833-7.987-.162-1.551-.379-3.098-.486-4.653-.142-2.057-.085-4.124-.208-6.182-.081-1.345-.128-2.699-.347-4.028-.205-1.247-.603-2.454-.903-3.681-.464-1.898-.907-3.802-1.389-5.695-.29-1.137-.659-2.255-.903-3.403-.122-.573-.211-1.154-.278-1.736-.075-.646-.139-1.667-.139-1.945s-.376-1.248-.556-1.875c-.192-.67-.462-1.324-.556-2.014-.124-.918.011-1.852 0-2.778-.012-.996-.015-1.992-.07-2.987-.088-1.601-.228-3.2-.417-4.792-.11-.93-.267-1.854-.417-2.778-.237-1.462-.522-2.915-.764-4.376-.268-1.618-.569-3.233-.764-4.862-.201-1.684-.329-3.377-.417-5.07-.055-1.064-.133-2.132-.07-3.195.079-1.307.438-2.585.556-3.889.11-1.223.059-2.456.139-3.681.13-1.995.445-3.977.556-5.973.073-1.318-.023-2.642.069-3.959.159-2.257.558-4.491.833-6.737.21-1.713.396-3.429.625-5.14.404-3.015.68-6.055 1.32-9.029.248-1.153.624-2.276.972-3.403.238-.769.494-1.533.764-2.292.241-.676.574-1.322.764-2.014.249-.907.389-1.843.486-2.778.072-.691-.04-1.397.069-2.084.118-.738.625-2.153.625-2.153" stroke-linecap="round"/><path d="M456.876 190.259s.423 2.97.695 4.445c.484 2.63 1.184 5.218 1.667 7.848.355 1.936.44 3.922.903 5.834.155.64.433 1.245.625 1.875.329 1.08.688 2.156.903 3.264.235 1.212.366 2.447.417 3.681.032.764-.002 1.531-.07 2.292-.07.793-.302 1.567-.347 2.361-.043.74-.005 1.485.069 2.223.069.678.239 1.342.347 2.014.074.462.174.922.208 1.389.038.508-.074 1.024 0 1.528.14.957.529 1.86.833 2.778.256.772.416 1.594.833 2.292.446.746 1.195 1.265 1.736 1.945" stroke-linecap="round"/><path d="M463.543 233.53l.486 2.014c.185.764.36 1.53.556 2.292.22.86.379 1.741.695 2.57.516 1.355 1.372 2.558 1.945 3.889.428.996.737 2.039 1.111 3.056.504 1.368 1.006 2.737 1.528 4.098.678 1.766 1.435 3.502 2.084 5.279.897 2.455 1.72 4.937 2.5 7.432.547 1.748 1.057 3.508 1.528 5.279.202.76.339 1.536.556 2.292.425 1.478.882 2.951 1.459 4.376.482 1.19 1.189 2.281 1.667 3.473.444 1.108.972 3.056 1.111 3.403s.242.918.278 1.389c.041.531-.037 1.065-.07 1.597-.072 1.182-.248 2.358-.278 3.542-.02.81-.001 1.623.07 2.431.069.793.176 1.585.347 2.361.193.873.518 1.711.764 2.57.311 1.085.608 2.175.903 3.264.213.786.441 1.568.625 2.361.107.46.231.919.278 1.389.043.438.01.88 0 1.32-.012.51-.022 1.02-.069 1.528l-.174 1.215-.07 1.424c-.041.476-.103.951-.174 1.424-.059.395-.163.784-.208 1.181-.025.219-.029.44-.035.66-.005.208-.017.417 0 .625.035.432.137.857.208 1.285.068.405.03.845.208 1.215.128.266.34.503.59.66.214.134.476.206.729.208.227.002.463-.06.66-.174.213-.122.397-.309.521-.521.175-.301.217-.664.278-1.007.073-.412.051-.835.104-1.25.052-.408.148-.809.208-1.215.055-.369.116-.739.139-1.111.021-.335.027-.744.07-1.077.035-.273.05-.469.139-.729.114-.334.268-.652.417-.972.12-.258.302-.491.382-.764.062-.212.058-.439.069-.66.015-.289-.035-.581 0-.868l.035-.139c.159-.117.411-.046.59.035.194.087.37.255.451.451.049.118.007.255 0 .382-.017.302-.068.602-.104.903-.044.371-.116.739-.139 1.111-.022.358-.034.719 0 1.077.041.434.172.855.243 1.285.08.484.148.971.208 1.459.083.67.148 1.342.208 2.014.041.451.023.909.104 1.354.052.285.18.551.243.833.064.286.101.578.139.868.045.346-.005.71.104 1.042.092.281.254.544.451.764.193.216.433.397.695.521.172.082.366.12.556.139.277.028.57.054.833-.035.174-.058.309-.198.451-.313.185-.149.414-.274.521-.486.089-.177.058-.393.07-.59.022-.381.032-.765 0-1.146-.023-.281-.107-.554-.139-.833-.043-.38-.045-.764-.07-1.146-.022-.347-.005-.7-.07-1.042l-.208-.66c-.054-.274-.048-.555-.07-.833-.026-.336-.07-.671-.07-1.007 0-.337.042-.672.07-1.007.03-.371.104-.739.104-1.111 0-.256-.035-.511-.07-.764l-.139-.764c-.05-.357-.025-.725-.104-1.077l-.139-.382c-.008-.081-.027-.189.035-.243.122-.106.325-.017.486 0 .165.018.35.01.486.104.158.11.258.301.313.486.046.155-.003.324 0 .486l.035.868c.005.266-.024.534 0 .799.023.258.077.513.139.764.084.341.186.679.313 1.007.128.333.339.633.451.972.126.382.136.794.243 1.181.121.437.35.842.451 1.285.115.5.12 1.018.174 1.528l.139 1.459c.041.383.078.766.139 1.146.047.291.111.58.174.868.053.244.041.518.174.729.167.265.44.471.729.59.312.129.675.162 1.007.104.291-.05.564-.203.799-.382.183-.139.317-.335.451-.521.158-.219.33-.439.417-.695.101-.298.087-.624.104-.938.033-.601 0-1.204 0-1.806 0-.475.078-.956 0-1.424-.059-.35-.259-.663-.347-1.007-.135-.523-.18-1.066-.278-1.597-.055-.301-.208-.764-.174-.903.035-.139-.012-.722-.07-1.077-.044-.272-.144-.531-.208-.799-.075-.311-.091-.64-.208-.938l-.347-.59c-.084-.243-.044-.514-.104-.764l-.313-.903c-.038-.159-.052-.323-.07-.486-.017-.15-.118-.326-.035-.451.041-.061.136-.058.208-.069.091-.015.193-.038.278 0 .127.057.215.188.278.313.101.201.104.438.139.66.034.218.019.444.07.66.053.228.173.436.243.66l.208.799c.095.274.237.53.347.799.122.298.24.599.347.903.138.39.28.78.382 1.181.139.548.215 1.11.313 1.667.099.566.168 1.137.278 1.702.07.361.139.724.243 1.077.105.355.21.714.382 1.042.112.213.265.403.417.59.129.159.247.336.417.451.185.126.406.197.625.243.238.051.492.089.729.035.167-.038.317-.138.451-.243.136-.106.226-.26.347-.382.144-.145.357-.235.451-.417.081-.155.051-.347.07-.521.048-.462.093-.925.104-1.389.011-.463-.029-.926-.035-1.389-.003-.278.07-.565 0-.833-.054-.206-.236-.357-.313-.556-.112-.288-.165-.597-.208-.903l-.035-.66-.243-.729c-.071-.399.01-.813-.035-1.215-.033-.305-.079-.612-.174-.903l-.278-.59c-.144-.405-.183-.841-.313-1.25-.116-.367-.308-.707-.417-1.077-.13-.442-.14-.915-.278-1.354-.079-.252-.254-.471-.313-.729-.057-.248-.046-.509-.035-.764.008-.175.034-.349.07-.521l.208-.729c.061-.309.113-.623.104-.938-.006-.211-.084-.415-.104-.625l-.035-1.146-.104-.695c-.011-.22-.004-.443.035-.66.028-.155.085-.304.139-.451.121-.331.339-.628.417-.972.066-.294.006-.603.035-.903.029-.303.142-.598.139-.903-.002-.2-.104-.59-.104-.59" stroke-linecap="round"/><path d="M483.998 315.765h.729c.209.006.46.162.625.035.093-.072.047-.231.07-.347.049-.254.123-.506.139-.764.013-.208.024-.425-.035-.625-.053-.179-.146-.354-.278-.486-.113-.114-.268-.181-.417-.243-.122-.051-.25-.108-.382-.104-.11.003-.216.052-.313.104-.13.071-.241.175-.347.278-.077.074-.159.148-.208.243-.066.127-.093.274-.104.417-.01.127.023.255.035.382.023.243.036.487.07.729.018.128-.03.299.07.382.089.074.231 0 .347 0z" stroke-linecap="round"/><path d="M490.562 318.994c.186.158.485.058.729.07.278.013.557.03.833 0 .212-.023.486.023.625-.139.121-.141.044-.37.035-.556-.014-.293-.04-.592-.139-.868-.054-.151-.14-.294-.243-.417-.127-.151-.283-.279-.451-.382-.128-.079-.268-.149-.417-.174-.172-.028-.359-.028-.521.035-.207.081-.39.237-.521.417-.095.13-.148.292-.174.451-.041.252-.003.512.035.764.041.272-.001.62.208.799z" stroke-linecap="round"/><path d="M496.396 319.897c.137.143.392.061.59.07.428.019.86.023 1.285-.035.284-.039.661.021.833-.208.188-.25.033-.632-.035-.938-.071-.319-.199-.632-.382-.903-.064-.095-.143-.187-.243-.243-.208-.118-.456-.186-.695-.174-.135.007-.259.083-.382.139-.132.06-.264.125-.382.208-.127.09-.248.192-.347.313-.086.104-.159.222-.208.347-.061.154-.093.321-.104.486-.021.313-.147.711.069.938z" stroke-linecap="round"/><path d="M502.022 317.432c.147.122.367.111.556.139.229.034.463.048.695.035.211-.012.427-.031.625-.104.19-.07.431-.131.521-.313.099-.198-.023-.444-.069-.66-.046-.215-.093-.438-.208-.625-.077-.125-.193-.226-.313-.313-.126-.091-.266-.173-.417-.208-.135-.032-.278-.013-.417 0-.188.017-.375.052-.556.104-.12.035-.236.082-.347.139-.134.069-.283.129-.382.243-.074.086-.127.199-.139.313-.017.165.052.329.104.486.088.266.132.585.347.764z" stroke-linecap="round"/><path d="M502.516 301.227s.093.721.147 1.08c.075.492.156.984.246 1.473.075.411.095.839.246 1.228.172.445.423.868.737 1.228.359.413.836.707 1.277 1.031.333.245.666.494 1.031.688.344.182.696.382 1.08.442.211.033.43-.003.638-.049.137-.03.286-.057.393-.147l.162-.17c.07-.092.236-.312.28-.419.044-.106.029-.233 0-.344-.034-.128-.127-.231-.196-.344-.39-.635-1.014-1.153-1.228-1.866-.028-.094 0-.196 0-.295 0-.196.029-.395 0-.589l-.147-.491c-.051-.291-.026-.59-.049-.884-.038-.476-.065-.954-.147-1.424-.058-.332-.114-.672-.246-.982-.121-.284-.36-.506-.491-.786-.265-.562-.37-1.187-.589-1.768-.119-.316-.292-.611-.393-.933l-.147-.688c-.104-.353-.308-.673-.393-1.031l-.098-.982c-.042-.171-.104-.341-.196-.491-.104-.168-.256-.3-.393-.442-.473-.493-.986-.945-1.473-1.424-.743-.73-1.486-1.461-2.21-2.21-.717-.741-1.437-1.48-2.112-2.259-.48-.555-.924-1.14-1.375-1.719-.416-.535-.848-1.059-1.228-1.621-.267-.395-.514-.806-.737-1.228-.202-.382-.421-.763-.54-1.179-.141-.492-.128-1.015-.196-1.522-.078-.574-.156-1.147-.246-1.719-.09-.574-.178-1.15-.295-1.719-.268-1.303-.61-2.59-.933-3.88-.3-1.198-.612-2.393-.933-3.585-.429-1.592-.937-3.162-1.326-4.764-.379-1.56-.674-3.139-.982-4.715-.192-.98-.414-1.956-.54-2.947-.114-.895-.146-1.8-.196-2.701-.046-.818-.063-1.637-.098-2.456-.062-1.457-.115-2.915-.196-4.371-.068-1.212-.147-2.424-.246-3.634-.098-1.213-.134-2.436-.344-3.634-.09-.516-.271-1.013-.393-1.522-.16-.668-.36-1.331-.442-2.014-.081-.667.005-1.344-.049-2.014-.077-.955-.223-1.905-.393-2.849-.187-1.04-.408-2.075-.688-3.094-.306-1.113-.711-2.197-1.08-3.291-.416-1.231-.795-2.477-1.277-3.683-.44-1.102-.996-2.155-1.473-3.241-.573-1.303-1.176-2.594-1.67-3.929-.489-1.321-.929-2.662-1.277-4.027-.403-1.584-.673-3.2-.933-4.813-.244-1.516-.363-3.049-.589-4.567-.188-1.264-.477-2.513-.638-3.782-.145-1.141-.179-2.294-.295-3.438-.142-1.41-.323-2.816-.491-4.224-.16-1.343-.262-2.694-.491-4.027-.179-1.041-.513-2.052-.688-3.094-.168-1.007-.315-2.024-.344-3.045-.025-.885.031-1.774.147-2.652.146-1.095.466-2.159.688-3.241.238-1.161.506-2.316.688-3.487.222-1.433.386-2.876.491-4.322.075-1.029.082-2.062.098-3.094.015-.949.052-1.9 0-2.849-.057-1.052-.227-2.096-.344-3.143-.097-.868-.245-1.731-.295-2.603-.068-1.21.107-2.428 0-3.634-.082-.928-.25-1.851-.491-2.75-.162-.605-.351-1.211-.638-1.768-.237-.46-.56-.873-.884-1.277-.543-.678-1.151-1.304-1.768-1.915-.659-.652-1.331-1.296-2.063-1.866-.466-.363-.949-.71-1.473-.982-.483-.251-1.006-.417-1.522-.589-.742-.248-1.519-.385-2.259-.638-.952-.326-1.88-.721-2.799-1.13-1.198-.532-2.383-1.096-3.536-1.719-1.544-.835-2.967-1.881-4.518-2.701-1.101-.582-2.268-1.029-3.389-1.572-1.436-.696-2.843-1.452-4.273-2.161-1.141-.566-2.291-1.116-3.438-1.67-1.259-.608-2.557-1.143-3.782-1.817-.947-.521-1.895-1.058-2.75-1.719-.642-.496-1.249-1.047-1.768-1.67-.25-.3-.418-.66-.638-.982-.411-.6-1.277-1.768-1.277-1.768" stroke-linecap="round"/><path d="M434.545 121.967s-.245-.611-.295-.933c-.15-.971-.035-1.965 0-2.947.057-1.607.206-3.21.344-4.813.07-.82.146-1.639.246-2.456.098-.804.218-1.606.344-2.406.15-.952.321-1.9.491-2.849.174-.967.54-2.898.54-2.898" stroke-linecap="round"/><path d="M435.134 108.609s.539-.735.835-1.08c.279-.325.518-.711.884-.933.204-.124.463-.117.688-.196.352-.125.731-.219 1.031-.442.429-.319.743-.778 1.031-1.228.372-.579.606-1.236.884-1.866.314-.712.698-1.405.884-2.161.165-.671.139-1.374.196-2.063.038-.458.027-.921.098-1.375.117-.749.45-1.457.54-2.21.084-.699.014-1.408 0-2.112-.008-.41.053-.831-.049-1.228-.1-.39-.54-1.08-.54-1.08" stroke-linecap="round"/><path d="M427.62 106.153c1.246-.374 2.417-.964 3.634-1.424 1.385-.524 2.867-.826 4.175-1.522.59-.314 1.183-.674 1.621-1.179.896-1.035 1.376-2.376 1.915-3.634.586-1.365 1.062-2.783 1.424-4.224.263-1.047-.037-2.28.54-3.192.107-.169.291-.346.491-.344.304.003.737.54.737.54s.172-.283.196-.442c.133-.863-.209-1.734-.295-2.603-.154-1.569-.363-3.138-.393-4.715-.033-1.786.528-3.589.246-5.353-.277-1.729-1.09-3.341-1.866-4.911-.854-1.727-1.805-3.437-3.045-4.911-1.015-1.207-2.191-2.321-3.536-3.143-1.618-.99-3.444-1.693-5.304-2.063-1.478-.294-3.014-.021-4.518-.098-1.608-.083-3.204-.36-4.813-.393-1.605-.033-3.214.048-4.813.196-1.581.147-3.217.159-4.715.688-1.578.557-2.999 1.528-4.322 2.554-1.025.794-1.834 1.834-2.75 2.75-1.113 1.113-2.493 2.012-3.34 3.34-.975 1.528-1.457 3.342-1.866 5.108-.282 1.219-.291 2.486-.393 3.733-.091 1.111-.241 2.225-.196 3.34.047 1.189.332 2.357.491 3.536.168 1.244.28 2.496.491 3.733.107.627.393 1.866.393 1.866s.358-.756.688-.982c.222-.153.547-.323.786-.196.338.18.299.709.393 1.08.219.866.154 1.791.393 2.652.228.82.542 1.629.982 2.357.769 1.274 1.901 2.29 2.849 3.438.755.915 1.299 2.054 2.259 2.75 1.166.846 2.628 1.226 4.027 1.572 1.695.419 3.462.491 5.206.589 1.961.111 3.929 0 5.893 0 1.342 0 2.692.14 4.027 0 .782-.082 1.555-.265 2.308-.491z" stroke-linecap="round"/><path d="M397.858 93.335s-.069.622-.049.933c.029.449.115.896.246 1.326.181.597.52 1.134.737 1.719.209.563.405 1.134.54 1.719.149.645.187 1.311.295 1.964.105.64.169 1.291.344 1.915.184.659.461 1.29.737 1.915.281.636.459 1.357.933 1.866.35.376.852.588 1.326.786.359.15.748.218 1.13.295.227.046.483-.009.688.098.256.135.422.402.589.638.182.257.442.835.442.835" stroke-linecap="round"/><path d="M405.176 105.367s.488 1.662.688 2.505c.231.975.432 1.957.589 2.947.262 1.644.379 3.309.589 4.96.184 1.442.471 2.873.589 4.322.049.604.088 1.212.049 1.817-.02.314-.147.933-.147.933" stroke-linecap="round"/><path d="M403.457 107.627s.191.583.246.884c.137.76.046 1.551.196 2.308.148.741.391 1.466.688 2.161.322.755.724 1.478 1.179 2.161.232.349.57.623.786.982.34.566.786 1.817.786 1.817" stroke-linecap="round"/><path d="M408.613 119.855s-.353 1.258-.589 1.866c-.197.505-.334 1.062-.688 1.473-.577.672-1.443 1.032-2.21 1.473-.838.482-1.734.853-2.603 1.277-1.145.559-2.295 1.107-3.438 1.67-.919.453-1.817.951-2.75 1.375-1.53.696-3.107 1.286-4.666 1.915-1.274.515-2.569.979-3.831 1.522-1.426.614-2.786 1.379-4.224 1.964-.959.391-1.948.706-2.932 1.032-1.185.393-2.393.714-3.577 1.111-1.003.336-2.033.617-2.987 1.077-.576.278-1.121.624-1.632 1.007-.499.373-.935.824-1.389 1.25-.555.521-1.127 1.028-1.632 1.597-.454.513-.911 1.036-1.25 1.632-.308.542-.494 1.146-.695 1.736-.178.524-.327 1.058-.451 1.597-.148.642-.264 1.292-.347 1.945-.075.587-.094 1.181-.139 1.771-.095 1.238-.173 2.478-.278 3.716-.062.73-.137 1.459-.208 2.188-.079.799-.198 1.595-.243 2.396-.056.994-.075 1.992-.035 2.987.03.743.119 1.484.208 2.223.104.86.239 1.716.382 2.57.156.929.361 1.85.521 2.778.139.808.305 1.614.382 2.431.069.738.074 1.481.07 2.223-.005.811-.066 1.621-.104 2.431-.043.903-.082 1.806-.139 2.709-.069 1.089-.138 2.178-.243 3.264-.085.87-.249 1.732-.313 2.605-.065.889-.054 1.783-.07 2.674-.022 1.273-.011 2.547-.035 3.82-.023 1.216-.031 2.433-.104 3.646-.045.754-.12 1.507-.208 2.257-.134 1.138-.326 2.269-.486 3.403-.141.995-.244 1.996-.417 2.987-.213 1.223-.462 2.442-.764 3.646-.361 1.439-.765 2.87-1.25 4.271-.478 1.379-1.094 2.706-1.632 4.063-.445 1.121-.911 2.234-1.32 3.369-.289.803-.551 1.615-.799 2.431-.35 1.15-.71 2.3-.972 3.473-.213.951-.349 1.918-.486 2.882-.142 1.004-.248 2.012-.347 3.021-.139 1.422-.213 2.849-.347 4.271-.102 1.078-.268 2.15-.347 3.23-.109 1.49-.121 2.986-.174 4.48-.039 1.1-.083 2.199-.104 3.299-.03 1.562-.018 3.126-.035 4.688-.009.822.027 1.646-.035 2.466-.045.594-.158 1.181-.243 1.771-.1.695-.195 1.391-.313 2.084-.176 1.034-.377 2.064-.59 3.091-.268 1.289-.533 2.581-.868 3.855l-.556 1.841-.382 1.702c-.235.9-.548 1.778-.799 2.674l-.59 2.257c-.119.419-.295.823-.382 1.25-.088.433-.098.879-.139 1.32-.04.428-.075.856-.104 1.285-.015.22.03.449-.035.66-.072.233-.229.435-.382.625-.231.287-.535.506-.799.764-.492.481-.937 1.011-1.459 1.459-.49.421-1.032.778-1.563 1.146-1.058.734-2.075 1.55-3.23 2.118-.253.125-.54.166-.799.278-.504.218-.967.519-1.459.764-.459.229-.984.346-1.389.66-.286.222-.495.532-.695.833-.237.358-.422.75-.59 1.146-.253.596-.349 1.254-.625 1.841-.197.418-.482.79-.729 1.181-.251.396-.531.774-.764 1.181l-.486.972c-.135.23-.332.422-.451.66-.208.416-.326.872-.451 1.32-.087.308-.103.635-.208.938-.114.328-.359.603-.451.938-.034.123-.035.382-.035.382" stroke-linecap="round"/><path d="M508.342 306.631s-.506-.172-.66-.278c-.197-.135-.402-.269-.556-.451-.137-.162-.259-.35-.313-.556-.047-.179-.054-.378 0-.556.024-.08.059-.185.139-.208.085-.025.243.104.243.104" stroke-linecap="round"/><path d="M335.121 296.005c-.115-.013-.2.123-.278.208-.481.532-1.267 1.141-1.111 1.841l.104.07c.131.052.277.083.417.07.197-.019.397-.09.556-.208.199-.148.343-.368.451-.59.1-.204.168-.432.174-.66.004-.166-.031-.338-.104-.486-.047-.096-.102-.232-.208-.243z" stroke-linecap="round"/><path d="M333.593 298.054s-.23.306-.278.486c-.042.157-.04.329 0 .486.036.141.095.291.208.382.197.158.478.183.729.208.3.03.61.004.903-.07.392-.098.741-.324 1.111-.486.579-.254 1.219-.4 1.736-.764.261-.184.462-.444.66-.695.223-.282.414-.589.59-.903.277-.492.486-1.019.729-1.528.139-.29.294-.572.417-.868.08-.193.106-.408.208-.59.117-.208.299-.372.451-.556.342-.41.715-.794 1.042-1.215.173-.223.258-.528.486-.695.127-.093.296-.116.451-.139h.278" stroke-linecap="round"/><path d="M342.205 288.747s.597.942.799 1.459c.139.356.203.737.278 1.111.061.31.104.624.139.938.051.45.116.902.104 1.354-.011.455-.089.907-.174 1.354-.088.469-.272.918-.347 1.389-.075.47-.092.948-.104 1.424-.014.532.108 1.07.035 1.597-.06.432-.251.835-.382 1.25-.169.534-.343 1.066-.521 1.597-.147.441-.266.893-.451 1.32-.147.337-.41.622-.521.972-.116.367-.102.763-.139 1.146-.047.497-.02 1.002-.104 1.493-.073.426-.233.833-.347 1.25-.129.474-.279.943-.382 1.424-.091.424-.167.853-.208 1.285-.035.357-.029.718-.035 1.077-.006.347-.007.695 0 1.042.006.278-.038.565.035.833.058.215.192.403.313.59.103.16.187.35.347.451.19.12.437.111.66.139.264.033.536.078.799.035.221-.036.44-.117.625-.243.169-.115.299-.284.417-.451.217-.309.402-.648.521-1.007.111-.334.109-.696.174-1.042.095-.511.199-1.021.313-1.528.117-.523.238-1.046.382-1.563.166-.596.332-1.194.556-1.771.189-.488.449-.945.66-1.424.121-.276.257-.546.347-.833.099-.316.143-.647.208-.972.123-.612.265-1.222.347-1.841.04-.299-.089-.646.069-.903.071-.115.22-.164.347-.208.088-.03.194-.076.278-.035.061.029.08.11.104.174.046.121.075.253.07.382-.011.264-.135.51-.208.764l-.347 1.146-.278 1.007c-.058.208-.088.427-.174.625-.124.286-.37.51-.486.799-.12.297-.147.623-.208.938-.054.276-.111.553-.139.833l-.035 1.077c-.048.479-.116.96-.243 1.424-.128.466-.382.891-.521 1.354-.14.465-.224.946-.313 1.424-.098.53-.182 1.062-.243 1.597-.051.45-.093.902-.104 1.354-.011.428-.126.888.035 1.285.135.334.429.599.729.799.256.171.563.277.868.313.301.035.62.004.903-.104.225-.086.42-.246.59-.417.17-.17.327-.367.417-.59.114-.282.088-.603.139-.903.053-.313.106-.627.174-.938.061-.28.159-.551.208-.833l.07-.66c.166-.929.435-1.837.695-2.743.178-.619.371-1.235.59-1.841.179-.493.433-.958.59-1.459.139-.442.232-.898.313-1.354.098-.551.141-1.111.208-1.667.048-.393.075-.79.139-1.181.046-.28-.004-.612.174-.833.087-.109.25-.128.382-.174.191-.065.388-.134.59-.139.188-.004.405-.009.556.104.145.109.216.307.243.486.042.279-.079.558-.139.833-.076.351-.163.701-.278 1.042-.088.261-.25.496-.313.764-.076.328-.049.671-.07 1.007-.013.22-.038.44-.035.66.004.279.049.555.07.833.026.359.089.717.07 1.077-.018.34-.123.67-.174 1.007-.094.623-.139 1.254-.243 1.875-.086.513-.215 1.017-.313 1.528-.112.589-.233 1.177-.313 1.771-.034.253-.066.508-.069.764-.003.186-.014.376.035.556.047.175.137.339.243.486.086.12.186.236.313.313.166.1.373.107.556.174.141.051.269.144.417.174.17.034.348.013.521 0 .152-.012.311-.011.451-.07.213-.09.399-.247.556-.417.176-.191.323-.417.417-.66.122-.318.115-.672.174-1.007.069-.394.122-.79.208-1.181.126-.573.332-1.127.451-1.702.079-.378.107-.765.174-1.146.092-.523.26-1.034.313-1.563v-.799c.052-.506.195-.998.313-1.493.094-.396.255-.778.313-1.181.071-.504.051-1.019.035-1.528-.021-.674-.168-1.34-.174-2.014-.003-.336-.109-.722.07-1.007.099-.158.314-.207.486-.278.166-.068.342-.121.521-.139.196-.02.422-.067.59.035.173.105.259.326.313.521.046.167.004.347 0 .521-.006.278-.077.559-.035.833.041.268.167.517.278.764.13.288.359.531.451.833.068.222.052.463.07.695.036.485.028.974.07 1.459l.174 1.389c.043.496.018.998.07 1.493.037.362.084.724.174 1.077.051.202.073.431.208.59.171.201.447.289.695.382.2.075.414.169.625.139.262-.037.496-.208.695-.382.162-.142.291-.326.382-.521.162-.346.189-.74.278-1.111.108-.45.267-.893.313-1.354.037-.38-.017-.764-.035-1.146-.026-.545-.039-1.091-.104-1.632l-.174-.972c-.082-.726-.001-1.465-.104-2.188-.049-.342-.169-.67-.243-1.007-.089-.403-.192-.806-.243-1.215-.055-.437-.078-.879-.07-1.32.007-.384.04-.768.104-1.146.112-.659.325-1.296.486-1.945.21-.845.405-1.693.625-2.535.307-1.174.679-2.33.972-3.507.22-.886.392-1.783.59-2.674.103-.463.247-.919.313-1.389.084-.597.087-1.203.104-1.806.03-1.03-.027-2.061 0-3.091.012-.44.012-.883.07-1.32.044-.329.122-.652.208-.972.136-.505.324-.996.486-1.493.242-.741.495-1.479.729-2.223l.695-2.292c.168-.534.347-1.065.521-1.597.428-1.308.91-2.6 1.285-3.924.513-1.81.87-3.66 1.32-5.487.442-1.797.874-3.596 1.354-5.383.393-1.465.824-2.92 1.25-4.376.77-2.633 1.495-5.281 2.361-7.883.573-1.72 1.242-3.406 1.875-5.105.583-1.565 1.251-3.101 1.771-4.688.363-1.108.661-2.236.938-3.369.16-.655.297-1.316.417-1.979.139-.772.226-1.552.347-2.327.089-.568.14-1.144.278-1.702.114-.462.375-.885.451-1.354.061-.377-.009-.764 0-1.146.012-.487.028-.974.069-1.459.04-.465.119-.926.174-1.389.037-.312.114-.623.104-.938-.015-.47-.164-.926-.243-1.389-.059-.347-.106-.696-.174-1.042-.071-.361-.188-.713-.243-1.077-.065-.425-.1-.855-.104-1.285-.007-.742.06-1.484.139-2.223.115-1.083.313-2.155.486-3.23.217-1.345.444-2.689.695-4.028.172-.917.411-1.822.556-2.743.257-1.634.372-3.287.556-4.931.152-1.354.302-2.709.451-4.063.128-1.158.302-2.311.382-3.473.058-.843.07-2.535.07-2.535" stroke-linecap="round"/><path d="M376.794 156.643s.379 1.688.556 2.535c.183.878.358 1.758.521 2.639.124.67.196 1.35.347 2.014.094.411.211.817.347 1.215.181.531.415 1.043.625 1.563.286.707.624 1.395.868 2.118.214.636.345 1.297.521 1.945.24.881.492 1.758.729 2.639.404 1.502.872 2.99 1.181 4.515.209 1.032.282 2.087.451 3.125.208 1.277.469 2.546.695 3.82.178 1.006.324 2.018.521 3.021.155.791.324 1.58.521 2.361l.729 2.57c.234.92.48 1.84.625 2.778.144.93.172 1.874.243 2.813.081 1.064.137 2.13.208 3.195.068 1.007.079 2.02.208 3.021.103.795.31 1.573.451 2.361.124.693.246 1.387.347 2.084.122.843.199 1.691.313 2.535.097.719.266 1.429.313 2.153.046.716-.024 1.435-.035 2.153-.013.926.016 1.853-.035 2.778-.033.592-.105 1.182-.174 1.771-.101.87-.221 1.738-.347 2.605l-.313 1.979c-.239 1.641-.465 3.284-.66 4.931-.12 1.017-.221 2.036-.313 3.056-.08.89-.15 1.782-.208 2.674-.058.891-.134 1.781-.139 2.674-.003.568.034 1.135.07 1.702.035.556.078 1.113.139 1.667.074.674.172 1.345.278 2.014.051.325.152.644.174.972.018.266-.035.799-.035.799" stroke-linecap="round"/><path d="M387.108 243.184s-.117.815-.208 1.215c-.075.329-.171.653-.278.972-.174.518-.427 1.007-.59 1.528-.264.841-.474 1.701-.625 2.57-.132.757-.155 1.529-.243 2.292-.086.742-.14 1.489-.278 2.223-.157.833-.422 1.642-.625 2.466l-.59 2.466c-.213.858-.44 1.713-.66 2.57-.243.949-.519 1.891-.729 2.848-.207.943-.378 1.893-.521 2.848-.148.991-.234 1.991-.347 2.987-.142 1.25-.291 2.499-.417 3.751-.091.902-.159 1.806-.243 2.709-.111 1.193-.211 2.387-.347 3.577-.111.963-.225 1.926-.382 2.882-.214 1.304-.54 2.587-.764 3.889-.188 1.096-.352 2.196-.486 3.299-.191 1.57-.362 3.144-.451 4.723-.074 1.306-.047 2.616-.07 3.924l-.035 2.084c-.023 1.424-.099 2.848-.07 4.271.025 1.194.136 2.385.208 3.577.056.926.129 1.851.174 2.778.1 2.106.1 4.215.208 6.32.06 1.159.152 2.316.243 3.473.084 1.066.188 2.13.278 3.195.156 1.852.253 3.709.451 5.556.177 1.649.426 3.289.66 4.931.142.997.298 1.991.451 2.987.285 1.853.567 3.706.868 5.556.234 1.437.49 2.87.729 4.306.212 1.273.46 2.54.625 3.82.094.727.15 1.458.208 2.188.072.902.131 1.805.174 2.709.053 1.111.082 2.222.104 3.334.025 1.262.035 2.523.035 3.785 0 1.192-.014 2.385-.035 3.577-.024 1.424-.061 2.848-.104 4.271-.049 1.609-.145 3.217-.174 4.827-.013.694-.024 1.39 0 2.084.041 1.171.242 2.336.243 3.507.001.87-.084 1.739-.174 2.605-.086.826-.183 1.652-.347 2.466-.18.892-.462 1.76-.695 2.639-.138.521-.288 1.039-.417 1.563-.125.507-.247 1.015-.347 1.528-.22 1.128-.323 2.278-.556 3.403-.202.982-.514 1.938-.729 2.917-.213.967-.372 1.944-.556 2.917-.222 1.18-.66 3.369-.66 3.542 0 .174-.256 1.733-.347 2.605-.111 1.062-.174 2.129-.243 3.195-.098 1.504-.248 3.008-.243 4.515.003.963.139 1.92.174 2.882l.035 3.16c.034.916.077 1.832.174 2.743.157 1.49.499 2.956.66 4.445.11 1.015.056 2.046.208 3.056.158 1.047.499 2.057.729 3.091.393 1.766.722 3.546 1.111 5.313.386 1.752.795 3.499 1.215 5.244.358 1.485.726 2.967 1.111 4.445.424 1.625.919 3.231 1.32 4.862.334 1.358.606 2.731.903 4.098.246 1.134.501 2.266.729 3.403.272 1.351.545 2.703.764 4.063.166 1.026.326 2.055.417 3.091.049.554.076 1.111.07 1.667-.007.522-.051 1.043-.104 1.563-.094.918-.247 1.83-.382 2.743l-.347 2.223c-.099.671-.208 1.34-.278 2.014-.069.669-.139 1.341-.139 2.014 0 .337.037.672.07 1.007.027.279.021.566.104.833.112.361.342.674.521 1.007l.66 1.181.417.799" stroke-linecap="round"/><path d="M385.432 381.378s1.932-3.263 2.652-5.009c.9-2.183 1.599-4.462 2.063-6.777.258-1.291.393-3.929.393-3.929" stroke-linecap="round"/><path d="M404.979 375.19l-1.866 10.117" stroke-linecap="round"/><path d="M386.562 483.433s-.119.43-.196.638c-.1.268-.21.533-.344.786-.144.273-.26.581-.491.786-.23.204-.559.257-.835.393-.446.221-.875.477-1.326.688-.386.18-.757.434-1.179.491l-.393-.049c-.28-.001-.573-.002-.835.098-.318.122-.608.335-.835.589-.136.153-.189.365-.295.54-.153.253-.361.472-.491.737-.182.372-.291.777-.393 1.179-.115.451-.229.91-.246 1.375-.016.461.014.934.147 1.375.133.442.299.915.638 1.228.248.229.642.222.933.393.483.283.873.702 1.326 1.031.496.36 1.008.699 1.522 1.031.42.271.843.538 1.277.786.273.156.835.442.835.442" stroke-linecap="round"/><path d="M385.285 496.742s-.032.794.049 1.179c.102.482.325.932.54 1.375.283.581.542 1.197.982 1.67.393.422.915.712 1.424.982.714.379 1.474.689 2.259.884.832.207 1.697.269 2.554.295.885.026 1.771-.061 2.652-.147.938-.092 1.898-.118 2.799-.393.644-.197 1.304-.448 1.817-.884.367-.312.632-.742.835-1.179.164-.353.266-.742.295-1.13.034-.46-.093-.917-.147-1.375l-.196-1.522c-.052-.425-.118-.849-.147-1.277-.051-.751.008-1.508-.049-2.259-.029-.379-.077-.757-.147-1.13-.151-.796-.378-1.575-.589-2.357-.138-.51-.255-1.028-.442-1.522-.217-.575-.607-1.081-.786-1.67-.285-.935-.36-1.924-.442-2.898-.079-.93-.049-2.799-.049-2.799" stroke-linecap="round"/><path d="M394.371 478.227s.238 1.666.246 2.505c.012 1.248-.16 2.492-.295 3.733-.116 1.068-.132 2.164-.442 3.192-.273.904-.816 1.704-1.228 2.554-.374.771-.868 1.493-1.13 2.308-.243.759-.393 2.357-.393 2.357" stroke-linecap="round"/><path d="M400.903 494.189s.366-1.012.638-1.473l.835-1.08c.258-.445.47-.925.589-1.424.099-.415.114-.85.098-1.277-.012-.331-.099-.655-.147-.982-.034-.229-.032-.466-.098-.688-.077-.26-.344-.737-.344-.737" stroke-linecap="round"/><path d="M402.081 489.277s.215-1.574.344-2.357c.118-.723.282-1.437.393-2.161.14-.913.157-1.845.344-2.75.131-.634.351-1.247.54-1.866.141-.46.289-.919.442-1.375.126-.378.326-.737.393-1.13.063-.371.055-.757 0-1.13-.124-.846-.506-1.633-.737-2.456-.228-.814-.354-1.659-.638-2.456-.316-.883-.859-1.673-1.179-2.554-.278-.765-.467-1.562-.638-2.357-.217-1.005-.402-2.021-.491-3.045-.104-1.191-.041-2.39-.049-3.585-.005-.786-.083-1.576 0-2.357.14-1.315.573-2.583.835-3.88.297-1.47.573-2.944.835-4.42.385-2.173.713-4.356 1.08-6.532.16-.95.266-1.912.491-2.849.425-1.767 1.063-3.476 1.621-5.206.588-1.823 1.351-3.593 1.817-5.451.307-1.224.496-2.478.638-3.733.163-1.434.157-2.882.246-4.322.061-.999.198-1.995.196-2.996-.002-1.69-.139-3.381-.344-5.059-.159-1.304-.486-2.582-.688-3.88-.152-.979-.334-1.958-.393-2.947-.069-1.16.003-2.325.049-3.487.04-1 .064-2.004.196-2.996.153-1.142.375-2.279.688-3.389.402-1.426.999-2.789 1.522-4.175.429-1.135.875-2.263 1.326-3.389.626-1.56 1.352-3.082 1.915-4.666.436-1.225.815-2.471 1.13-3.733.307-1.23.596-2.472.737-3.733.133-1.188.082-2.39.098-3.585.021-1.571-.01-3.143 0-4.715l.098-7.907c.016-2.537-.093-5.077 0-7.612.049-1.345.149-2.689.295-4.027.148-1.365.391-2.718.589-4.076.308-2.112.617-4.224.933-6.335.403-2.686.865-5.363 1.228-8.054.339-2.516.552-5.047.884-7.563.324-2.461.792-4.902 1.08-7.367.174-1.485.312-2.976.393-4.469.086-1.586.104-3.176.098-4.764-.004-1.163-.036-2.326-.098-3.487-.056-1.033-.246-3.094-.246-3.094" stroke-linecap="round"/><path d="M403.604 302.504s1.792.356 2.701.393c1.033.042 2.067-.08 3.094-.196 1.714-.194 3.43-.434 5.108-.835 1.42-.34 2.822-.777 4.175-1.326.746-.303 1.489-.636 2.161-1.08.358-.237.711-.501.982-.835.411-.506.705-1.108.933-1.719.293-.785.418-1.627.54-2.456.218-1.478.26-2.977.344-4.469.104-1.848.149-3.699.196-5.55.026-1.015.132-2.033.049-3.045-.03-.365-.119-.723-.196-1.08l-.147-.589" stroke-linecap="round"/><path d="M422.954 296.414s.208.695.344 1.031c.142.353.252.735.491 1.031.338.418.816.706 1.277.982.955.573 1.992 1.011 3.045 1.375 1.099.38 2.246.616 3.389.835 1.639.315 3.299.529 4.96.688 1.24.118 2.488.257 3.733.196.876-.043 2.603-.393 2.603-.393" stroke-linecap="round"/><path d="M423.936 281.336s.327-1.135.393-1.719c.059-.521 0-1.572 0-1.572" stroke-linecap="round"/><path d="M408.118 155.184s-2.334 4.53-3.889 6.529c-1.729 2.222-5.973 5.973-5.973 5.973" stroke-linecap="round"/><path d="M427.149 155.323s2.57 6.495 4.584 9.307c1.601 2.236 5.834 5.834 5.834 5.834" stroke-linecap="round"/><path d="M420.898 152.545s.855 11.76 1.25 17.642c.392 5.833.926 11.66 1.111 17.503.126 3.98 0 11.946 0 11.946" stroke-linecap="round"/><path d="M423.543 221.665l-.786 17.68" stroke-linecap="round"/><path d="M371.307 213.804s-1.039 3.268-1.667 4.862c-.707 1.793-2.361 5.279-2.361 5.279" stroke-linecap="round"/><path d="M480.074 228.39s.286-3.819 0-5.695c-.234-1.535-.741-3.035-1.389-4.445-.365-.794-1.389-2.223-1.389-2.223" stroke-linecap="round"/><path d="M340.261 313.981c.159.229.513.223.783.294.202.053.413.066.62.098.293.045.635.297.881.13.157-.107.099-.367.13-.554.051-.302.099-.607.098-.913-.001-.186-.022-.373-.065-.554-.029-.124-.043-.266-.13-.359-.057-.06-.151-.067-.228-.098-.172-.069-.336-.185-.522-.196-.224-.013-.44.091-.652.163-.157.053-.335.083-.457.196-.171.158-.247.4-.326.62-.072.199-.109.41-.13.62-.019.184-.105.403 0 .554z"/><path d="M344.468 317.079c.054.145.235.201.359.294.2.15.383.343.62.424.175.06.37.043.554.033.253-.014.515-.034.75-.13.159-.065.341-.143.424-.294.121-.219.059-.501.033-.75-.032-.302-.118-.598-.228-.881-.059-.149-.137-.292-.228-.424-.066-.095-.133-.195-.228-.261l-.261-.098c-.109-.042-.209-.125-.326-.13-.192-.009-.389.065-.554.163-.172.102-.315.256-.424.424-.133.205-.183.453-.261.685-.061.183-.12.367-.163.554-.03.129-.112.268-.065.391z"/><path d="M351.35 317.177c.176.292.618.297.946.391.307.089.626.154.946.163.186.005.396.032.554-.065.067-.041.103-.122.13-.196.058-.154.057-.325.065-.489.019-.369.006-.741-.033-1.109-.013-.121-.014-.249-.065-.359l-.163-.196c-.078-.097-.129-.219-.228-.294-.094-.07-.211-.108-.326-.13-.128-.025-.263-.022-.391 0-.193.033-.373.122-.554.196-.167.068-.362.101-.489.228-.11.11-.149.275-.196.424-.076.242-.097.499-.13.75-.03.227-.183.488-.065.685z"/><path d="M360.123 312.057c.175.147.456-.031.685-.033.359-.003.812.275 1.076.033.289-.265.068-.782.065-1.174-.002-.305.072-.641-.065-.913-.09-.179-.269-.322-.457-.391-.143-.053-.306-.019-.457 0-.133.016-.273.034-.391.098-.169.091-.33.224-.424.391-.081.145-.078.324-.098.489-.029.238-.042.478-.033.718.01.263-.103.613.098.783z"/></g><g><path d="M151.25 121.096s.123 1.672.157 2.51c.04.993.052 1.987.052 2.981 0 1.046.006 2.093-.052 3.138-.021.367-.013.742-.105 1.098-.109.423-.336.808-.523 1.203-.294.62-.556 1.262-.941 1.83-.402.593-.891 1.129-1.412 1.621-.786.742-1.667 1.382-2.562 1.987-1.405.949-2.921 1.721-4.393 2.562-1.301.744-2.585 1.52-3.922 2.196-1.093.552-2.233 1.007-3.347 1.517-1.135.519-2.26 1.059-3.399 1.569-.798.358-1.615.672-2.406 1.046-.726.343-1.396.806-2.144 1.098-1.095.427-2.267.623-3.399.941-1.099.309-2.232.522-3.295.941-.711.281-1.376.667-2.039 1.046-.68.388-1.375.766-1.987 1.255-.539.431-1.003.951-1.464 1.464-.464.516-.942 1.031-1.307 1.621-.353.571-.629 1.193-.837 1.83-.215.66-.325 1.352-.418 2.039-.139 1.021-.157 2.056-.209 3.085l-.105 3.19c-.053 1.134-.11 2.268-.209 3.399-.067.769-.218 1.53-.261 2.301-.049.87-.048 1.744 0 2.615.044.788.165 1.57.261 2.353.176 1.431.377 2.86.575 4.288.118.855.219 1.712.366 2.562.179 1.034.453 2.051.628 3.085.108.642.226 1.285.261 1.935.038.696.003 1.396-.052 2.092-.062.789-.193 1.571-.314 2.353-.216 1.399-.471 2.792-.732 4.184-.147.786-.346 1.563-.471 2.353-.118.745-.188 1.498-.261 2.249-.107 1.096-.148 2.199-.261 3.295-.127 1.224-.3 2.442-.471 3.661-.225 1.606-.504 3.205-.732 4.811-.188 1.323-.286 2.659-.523 3.974-.152.845-.349 1.682-.575 2.51-.212.776-.474 1.539-.732 2.301-.297.877-.586 1.759-.941 2.615-.422 1.015-.898 2.009-1.412 2.981l-.889 1.517c-.365.698-.684 1.42-.994 2.144-.206.482-.415.965-.575 1.464-.197.616-.334 1.25-.471 1.883-.184.849-.301 1.711-.471 2.562-.195.979-.42 1.952-.628 2.929-.193.906-.411 1.807-.575 2.719-.084.468-.152.94-.209 1.412-.11.904-.201 1.811-.261 2.719-.063.957-.087 1.917-.105 2.876v2.144c-.017.837-.034 1.676-.105 2.51-.058.683-.132 1.366-.261 2.039-.119.619-.317 1.219-.471 1.83-.285 1.132-.539 2.271-.837 3.399-.426 1.611-.858 3.222-1.36 4.811-.35 1.109-.698 2.223-1.15 3.295-.258.61-.701 1.143-.889 1.778-.134.454-.036.954-.157 1.412-.135.513-.309 1.039-.628 1.464-.23.307-.546.56-.889.732-.786.394-1.74.316-2.562.628-.7.265-1.321.704-1.987 1.046-.832.427-1.656.874-2.51 1.255-.65.29-1.31.564-1.987.784-.462.151-1.001.106-1.412.366-.23.146-.345.421-.523.628-.274.318-.578.611-.837.941-.379.483-.729.99-1.046 1.517-.253.421-.408.898-.68 1.307-.302.453-.704.831-1.046 1.255-.249.31-.447.665-.732.941-.17.165-.395.264-.575.418l-.209.209c-.171.223-.271.493-.418.732l-.523.784c-.206.34-.332.731-.575 1.046-.249.322-.588.563-.889.837-.274.249-.544.505-.837.732l-.994.68c-.146.114-.322.208-.418.366-.112.184-.18.413-.157.628.021.194.137.373.261.523.168.201.401.341.628.471.312.179.641.347.994.418.273.055.559.029.837 0 .425-.044.845-.142 1.255-.261.519-.151 1.035-.33 1.517-.575.427-.217.84-.472 1.203-.784.318-.274.554-.631.837-.941.258-.282.581-.513.784-.837.129-.206.146-.466.261-.68.071-.132.169-.248.261-.366.329-.417.679-.819 1.046-1.203.349-.365.701-.734 1.098-1.046.397-.312.557-.433.889-.523.235-.064.491-.039.732 0 .326.053.642.172.941.314.354.168.994.628.994.628"/><path d="M88.496 286.295s2.11-.304 3.138-.575c1.231-.325 2.418-.49 3.608-.941.987-.374 2.093-.872 2.929-1.517.779-.6 1.277-1.507 1.778-2.353.477-.806 1.15-2.562 1.15-2.562"/><path d="M84.104 285.825s.001.666.052.994c.084.535.32 1.037.418 1.569.092.5.154 1.008.157 1.517.003.56-.068 1.12-.157 1.673-.136.848-.356 1.68-.575 2.51-.093.352-.261.686-.314 1.046-.048.328.031.664 0 .994-.035.371-.111.739-.209 1.098-.122.447-.303.876-.471 1.307l-.523 1.255c-.235.589-.456 1.184-.68 1.778-.177.47-.312.957-.523 1.412-.134.29-.352.539-.471.837-.106.267-.152.555-.209.837-.067.329-.074.669-.157.994-.115.449-.312.872-.471 1.307l-.575 1.569c-.161.452-.33.901-.471 1.36-.079.259-.149.521-.209.784-.103.45-.193.903-.261 1.36-.073.485-.158.973-.157 1.464.001.316-.013.648.105.941.107.265.322.477.523.68.218.221.436.482.732.575.3.094.649.064.941-.052.276-.11.487-.35.68-.575.305-.357.523-.782.732-1.203.317-.638.555-1.313.784-1.987.263-.773.428-1.576.68-2.353.222-.687.434-1.382.732-2.039.148-.327.346-.629.523-.941.189-.333.418-.645.575-.994.158-.352.232-.736.366-1.098.209-.565.455-1.115.68-1.673.211-.522.294-1.115.628-1.569.147-.2.354-.359.575-.471.128-.065.275-.12.418-.105.155.017.322.086.418.209.099.127.1.31.105.471.006.212-.039.426-.105.628-.108.334-.331.619-.471.941-.14.324-.246.662-.366.994-.195.539-.339 1.099-.575 1.621-.148.327-.364.619-.523.941-.194.392-.385.788-.523 1.203-.215.646-.32 1.323-.471 1.987-.218.957-.415 1.918-.628 2.876-.12.541-.264 1.077-.366 1.621-.13.693-.25 1.39-.314 2.092-.048.521-.085 1.047-.052 1.569.021.335.041.679.157.994.092.25.225.497.418.68.187.177.441.27.68.366.302.122.619.307.941.261.263-.037.471-.253.68-.418.193-.153.41-.304.523-.523.194-.377.13-.838.209-1.255.109-.578.188-1.165.366-1.726.08-.253.254-.474.314-.732.075-.323.009-.665.052-.994.066-.495.184-.982.314-1.464.19-.708.426-1.404.68-2.092.189-.513.367-1.036.628-1.517.161-.297.446-.524.575-.837.074-.18.072-.383.105-.575l.105-.68.314-1.307c.073-.398.074-.807.157-1.203.115-.551.274-1.094.471-1.621.087-.234.111-.534.314-.68.128-.092.324-.111.471-.052.126.051.215.186.261.314.065.18.027.385 0 .575-.053.377-.206.733-.314 1.098-.119.402-.27.795-.366 1.203-.073.31-.12.625-.157.941-.062.538-.073 1.081-.105 1.621-.019.331-.011.665-.052.994-.089.706-.276 1.395-.418 2.092-.154.75-.336 1.495-.471 2.249l-.209 1.412c-.1.528-.277 1.039-.366 1.569-.055.328-.106.661-.105.994.001.316-.025.654.105.941.107.236.314.423.523.575.17.124.369.217.575.261.273.059.561.045.837 0 .218-.035.44-.093.628-.209.231-.143.423-.351.575-.575.149-.22.23-.48.314-.732.256-.766.402-1.565.575-2.353.156-.711.277-1.43.418-2.144.224-1.134.426-2.272.68-3.399.079-.351.13-.712.261-1.046.132-.334.416-.599.523-.941.105-.334.087-.696.105-1.046.024-.487-.03-.977 0-1.464.044-.701.17-1.395.261-2.092.05-.384.084-.77.157-1.15.041-.212.051-.44.157-.628.049-.086.121-.165.209-.209.11-.055.261-.117.366-.052.047.029.05.102.052.157.008.161-.083.311-.105.471-.049.363-.034.732-.052 1.098-.017.349-.068.697-.052 1.046.017.369.09.735.157 1.098.071.387.218.76.261 1.15.076.676 0 1.36 0 2.039 0 .924-.013 1.848 0 2.772.009.645-.122 1.314.052 1.935.076.271.223.53.418.732.185.191.421.356.68.418.221.053.467.026.68-.052.222-.082.418-.241.575-.418.213-.239.347-.542.471-.837.218-.519.346-1.072.471-1.621.094-.414.174-.832.209-1.255.027-.33.003-.662 0-.994-.009-.994-.103-1.988-.052-2.981.022-.438.121-.87.157-1.307.032-.383.044-.767.052-1.15.014-.61-.033-1.221 0-1.83.026-.49.063-.982.157-1.464.049-.249.126-.492.209-.732.241-.694.562-1.358.837-2.039.336-.835.65-1.679.994-2.51.319-.772.631-1.548.994-2.301.386-.801.889-1.543 1.255-2.353.368-.814.699-1.65.941-2.51.149-.53.232-1.077.314-1.621.146-.971.245-1.949.314-2.929.072-1.027.087-2.056.105-3.085.009-.54.096-1.089 0-1.621-.053-.293-.314-.837-.314-.837"/><path d="M107.584 278.66s.124-.68.261-.994c.325-.739.915-1.334 1.307-2.039.432-.777.795-1.591 1.15-2.406.569-1.306 1.107-2.627 1.569-3.974.423-1.237.69-2.523 1.098-3.765.522-1.587 1.16-3.134 1.726-4.707.319-.887.587-1.794.941-2.667.47-1.156 1.044-2.267 1.569-3.399.574-1.238 1.186-2.459 1.726-3.713.579-1.344 1.028-2.742 1.621-4.079.481-1.083 1.051-2.124 1.569-3.19.405-.835.891-1.636 1.203-2.51.223-.625.349-1.282.471-1.935.123-.657.188-1.323.261-1.987.085-.765.209-2.301.209-2.301"/><path d="M124.057 236.824s.559-.911.732-1.412c.185-.537.287-1.107.314-1.673.027-.577-.201-1.15-.157-1.726.039-.502.279-.969.366-1.464.088-.501.139-1.009.157-1.517.019-.54.004-1.083-.052-1.621-.052-.493-.203-.972-.261-1.464-.068-.572-.146-1.151-.105-1.726.043-.604.255-1.183.366-1.778.175-.938.306-1.884.471-2.824.233-1.327.479-2.651.732-3.974.32-1.676.664-3.346.994-5.02.298-1.516.645-3.024.889-4.55.178-1.11.277-2.231.418-3.347l.261-2.039"/><path d="M126.149 175.221s.374 1.169.628 1.726c.447.98 1.016 1.9 1.569 2.824.447.747.862 1.522 1.412 2.196.631.774 1.499 1.33 2.144 2.092.631.745 1.673 2.406 1.673 2.406"/><path d="M128.607 180.241s.751 1.395.994 2.144c.224.693.37 1.418.418 2.144.06.889-.101 1.778-.157 2.667-.066 1.046-.148 2.091-.209 3.138-.081 1.394-.134 2.789-.209 4.184-.049.907-.131 1.812-.157 2.719-.025.871 0 1.743 0 2.615 0 .68-.012 1.36 0 2.039.017 1.011.095 2.022.105 3.033.011 1.151-.097 2.302-.052 3.451.029.752.133 1.5.209 2.249.096.942.227 1.881.314 2.824.066.714.119 1.428.157 2.144.058 1.097.029 2.198.105 3.295.057.822.169 1.639.261 2.458.083.733.21 1.461.261 2.196.055.783.093 1.57.052 2.353-.043.825-.194 1.641-.314 2.458-.185 1.259-.413 2.511-.628 3.765-.221 1.291-.468 2.577-.68 3.87-.243 1.479-.47 2.961-.68 4.445-.133.94-.26 1.881-.366 2.824-.163 1.444-.349 2.889-.418 4.34-.03.627-.011 1.255 0 1.883l.052 1.464c.009.488.044.978 0 1.464-.035.388-.119.771-.209 1.15-.199.831-.554 1.622-.732 2.458-.168.791-.18 1.608-.314 2.406-.2 1.194-.477 2.373-.732 3.556-.267 1.24-.583 2.47-.837 3.713-.291 1.424-.489 2.865-.784 4.288-.204.981-.498 1.943-.68 2.929-.208 1.125-.355 2.261-.471 3.399-.164 1.616-.235 3.241-.314 4.863-.052 1.063-.087 2.126-.105 3.19-.016.959.051 1.919 0 2.876-.061 1.155-.22 2.304-.366 3.451-.209 1.643-.511 3.274-.732 4.916-.253 1.879-.525 3.758-.68 5.648-.164 2-.208 4.008-.261 6.014-.045 1.69-.052 3.382-.052 5.073 0 1.691.038 3.382.052 5.073.021 2.458-.019 4.917.052 7.374.06 2.059.216 4.114.314 6.171.075 1.569.1 3.14.209 4.707.051.734.135 1.465.209 2.196.165 1.64.338 3.278.523 4.916.231 2.041.449 4.084.732 6.119.26 1.871.539 3.74.889 5.596.212 1.122.547 2.22.732 3.347.102.623.138 1.255.209 1.883.051.453.138.904.157 1.36.024.575-.044 1.15-.052 1.726-.017 1.098.036 2.197 0 3.295-.044 1.327-.164 2.65-.261 3.974-.095 1.291-.226 2.579-.314 3.87-.064.941-.151 1.881-.157 2.824-.005.803.074 1.604.105 2.406.041 1.081.074 2.161.105 3.242.02.715.094 1.43.052 2.144-.029.492-.121.979-.209 1.464-.202 1.107-.46 2.203-.732 3.295-.363 1.457-.816 2.89-1.203 4.34-.398 1.495-.783 2.994-1.15 4.497-.383 1.565-.753 3.133-1.098 4.707-.316 1.443-.676 2.879-.889 4.34-.086.589-.112 1.185-.157 1.778-.106 1.411-.201 2.823-.261 4.236-.061 1.429-.12 2.858-.105 4.288.008.768.056 1.535.105 2.301.068 1.065.13 2.131.261 3.19.131 1.052.375 2.088.523 3.138.211 1.494.362 2.997.523 4.497.152 1.411.22 2.831.418 4.236.256 1.808.695 3.585.994 5.386.294 1.773.477 3.563.784 5.334.121.701.264 1.398.418 2.092.191.858.416 1.709.628 2.562.38 1.535.845 3.051 1.15 4.602.211 1.071.353 2.157.471 3.242.105.973.164 1.951.209 2.929.038.836.069 1.673.052 2.51-.017.873-.157 2.615-.157 2.615"/><path d="M125.051 464.568s-.416 1.176-.575 1.778c-.154.585-.196 1.197-.366 1.778-.137.466-.359.903-.523 1.36-.168.467-.346.932-.471 1.412-.142.549-.261 1.108-.314 1.673-.047.503-.052 1.014 0 1.517.044.425.153.842.261 1.255.088.336.248.653.314.994.043.223.044.453.052.68.016.418 0 1.255 0 1.255"/><path d="M125.469 474.87s-.64 1.426-1.046 2.092c-.338.553-.785 1.033-1.15 1.569-.349.511-.761.995-.994 1.569-.16.396-.198.833-.261 1.255-.083.554-.1 1.116-.157 1.673-.032.314.009.647-.105.941-.139.361-.442.636-.68.941-.167.215-.394.388-.523.628-.199.369-.183.826-.366 1.203-.186.383-.474.707-.732 1.046-.315.414-.637.825-.994 1.203-.457.484-.98.902-1.464 1.36-.439.415-.856.854-1.307 1.255-.287.255-.642.439-.889.732-.272.322-.48.703-.628 1.098-.125.333-.139.697-.209 1.046-.07.349-.207.69-.209 1.046-.002.284.095.56.157.837.075.334.211.655.261.994.067.449-.123.941.052 1.36.147.353.484.601.784.837.252.197.537.359.837.471.333.124.692.174 1.046.209.191.019.575 0 .575 0"/><path d="M118.252 494.533s-.317.324-.418.523c-.148.29-.201.621-.261.941-.062.327-.073.662-.105.994-.039.418-.108.835-.105 1.255.004.526.032 1.058.157 1.569.067.274.144.559.314.784.12.159.288.288.471.366.227.096.486.094.732.105.297.012.889-.052.889-.052"/><path d="M121.704 494.847s-.183.535-.314.784c-.117.223-.319.397-.418.628-.092.214-.099.455-.157.68-.063.246-.1.503-.209.732-.091.192-.29.324-.366.523l-.052.418c-.069.256-.173.507-.314.732-.085.136-.258.215-.314.366-.103.278-.077.603 0 .889.063.234.181.471.366.628.228.192.547.244.837.314.29.07.591.087.889.105.261.015.523.011.784 0 .21-.009.628-.052.628-.052"/><path d="M124.841 495.265s-.343.472-.471.732c-.114.233-.167.491-.261.732-.097.247-.194.495-.314.732-.109.216-.275.403-.366.628-.081.2-.103.419-.157.628-.068.262-.124.528-.209.784-.089.267-.249.51-.314.784-.048.204-.089.421-.052.628.051.284.169.573.366.784.245.263.594.433.941.523.236.061.489.016.732 0 .526-.035 1.049-.12 1.569-.209.334-.057.67-.109.994-.209.216-.067.449-.122.628-.261.138-.107.259-.253.314-.418.033-.099 0-.314 0-.314"/><path d="M130.594 494.481s-.388.65-.628.941c-.344.419-.795.741-1.15 1.15-.228.263-.482.52-.628.837-.134.292-.144.627-.209.941-.075.365-.228.726-.209 1.098.019.363.196.701.314 1.046.079.23.126.478.261.68.213.317.514.58.837.784.443.28.945.5 1.464.575.606.088 1.226-.056 1.83-.157.425-.071.844-.183 1.255-.314.41-.131.832-.252 1.203-.471.234-.139.446-.32.628-.523.252-.281.518-.58.628-.941.076-.25-.015-.523 0-.784.018-.298.046-.596.105-.889.05-.249.209-.732.209-.732"/><path d="M136.294 499.554s.546-.204.784-.366c.337-.228.662-.499.889-.837.271-.403.403-.889.523-1.36.13-.511.174-1.042.209-1.569.039-.591.101-1.194 0-1.778-.097-.565-.363-1.089-.575-1.621-.191-.478-.343-.983-.628-1.412-.211-.319-.493-.59-.784-.837-.192-.163-.628-.418-.628-.418"/><path d="M137.131 490.088s.131-1.079.157-1.621c.016-.331-.051-.666 0-.994.053-.343.237-.655.314-.994.137-.601.18-1.219.261-1.83.075-.557.159-1.114.209-1.673.028-.313-.013-.634.052-.941.082-.383.36-.711.418-1.098.039-.259-.044-.523-.052-.784-.01-.296-.021-.593 0-.889l.209-1.464v-.732c.052-.686.176-1.366.314-2.039.183-.899.508-1.766.68-2.667.102-.535.255-1.078.209-1.621-.035-.418-.254-.799-.366-1.203-.134-.485-.201-.989-.366-1.464-.251-.722-.642-1.388-.941-2.092-.147-.346-.418-1.046-.418-1.046"/><path d="M138.49 470.948s-.293-1.458-.366-2.196c-.055-.555-.044-1.115-.052-1.673-.008-.54.061-1.084 0-1.621-.053-.462-.216-.905-.314-1.36-.131-.608-.254-1.218-.366-1.83-.115-.626-.261-1.249-.314-1.883v-1.517c-.07-.88-.368-1.734-.418-2.615-.046-.801.049-1.605.105-2.406.076-1.101.114-2.21.314-3.295.226-1.227.655-2.408.994-3.608.325-1.152.695-2.292.994-3.451.254-.987.486-1.98.68-2.981.168-.867.262-1.746.418-2.615.22-1.225.421-2.456.732-3.661.302-1.169.686-2.317 1.098-3.451.392-1.08.906-2.113 1.307-3.19.611-1.637 1.193-3.288 1.673-4.968.271-.947.556-1.899.68-2.876.108-.848.08-1.709.052-2.562-.033-1.032-.162-2.058-.261-3.085-.125-1.291-.332-2.575-.418-3.87-.091-1.357-.048-2.72-.105-4.079-.025-.611-.095-1.219-.105-1.83-.01-.663.034-1.325.052-1.987.016-.575-.049-1.159.052-1.726.068-.38.211-.745.366-1.098.361-.821.852-1.58 1.307-2.353.585-.992 1.255-1.932 1.83-2.929.464-.804.901-1.624 1.307-2.458.527-1.08.988-2.191 1.464-3.295.465-1.076.974-2.136 1.36-3.242.382-1.094.729-2.208.941-3.347.17-.912.218-1.845.261-2.772.061-1.289.069-2.582 0-3.87l-.366-3.399c-.058-1.079 0-2.162 0-3.242 0-1.116.005-2.231 0-3.347-.009-1.865-.076-3.73-.052-5.596.019-1.5.088-2.999.157-4.497.028-.61.045-1.222.105-1.83.098-.999.261-1.99.418-2.981.203-1.276.474-2.542.68-3.818.213-1.322.33-2.658.575-3.974.186-1.002.499-1.978.68-2.981.303-1.679.359-3.397.68-5.073.257-1.341.697-2.641.994-3.974.316-1.422.613-2.849.837-4.288.232-1.491.373-2.996.523-4.497.167-1.671.349-3.343.418-5.02.073-1.759.014-3.521 0-5.282-.009-1.116-.003-2.232-.052-3.347-.151-3.439-.747-10.299-.747-10.299"/><path d="M189.695 470.846s-.043-1.283 0-1.923l.222-1.627c.042-.615-.071-1.237 0-1.849.093-.797.428-1.55.555-2.343.163-1.019.152-2.059.261-3.085.116-1.084.358-2.154.418-3.242.055-.992.035-1.991-.052-2.981-.107-1.213-.36-2.41-.575-3.608-.157-.875-.313-1.751-.523-2.615-.313-1.287-.764-2.536-1.098-3.818-.289-1.109-.563-2.223-.784-3.347-.256-1.299-.348-2.628-.628-3.922-.293-1.36-.673-2.702-1.098-4.027-.552-1.717-1.254-3.382-1.883-5.073-.279-.75-.579-1.492-.837-2.249-.323-.95-.641-1.904-.889-2.876-.282-1.103-.532-2.218-.68-3.347-.073-.559-.12-1.124-.101-1.687.039-1.167.323-2.314.444-3.476.113-1.082.197-2.168.261-3.254.095-1.601.152-3.204.182-4.807.021-1.085.045-2.17 0-3.254-.025-.593-.009-1.198-.148-1.775-.137-.57-.418-1.096-.666-1.627-.246-.53-.535-1.04-.814-1.553-.648-1.193-1.359-2.351-1.997-3.55-.652-1.227-1.299-2.459-1.869-3.726-.539-1.199-.991-2.435-1.464-3.661-.396-1.024-.844-2.032-1.15-3.085-.304-1.044-.572-2.108-.68-3.19-.141-1.423.01-2.859.052-4.288.066-2.25.273-4.495.314-6.746.03-1.656-.036-3.312-.052-4.968-.019-1.917-.07-3.835-.052-5.752.006-.645.077-1.29.052-1.935-.045-1.173-.222-2.338-.366-3.504-.091-.734-.219-1.463-.314-2.196-.215-1.671-.336-3.353-.575-5.02-.218-1.523-.536-3.031-.784-4.55-.239-1.462-.396-2.939-.68-4.393-.378-1.934-.943-3.827-1.36-5.752-.402-1.858-.816-3.716-1.098-5.596-.174-1.161-.252-2.335-.366-3.504-.151-1.55-.342-3.098-.418-4.654-.098-1.985-.058-3.974-.052-5.962.004-1.151-.01-2.303.052-3.451.182-3.367.935-10.072.935-10.072"/><path d="M130.012 370.339s-.039 1.874 0 2.81l.296 3.55c.039.936.097 1.879 0 2.81-.099.952-.292 1.901-.592 2.81-.408 1.236-1.349 2.278-1.627 3.55-.252 1.156-.172 2.379 0 3.55.149 1.019.887 2.958.887 2.958"/><path d="M143.472 392.23s1.202-3.02 1.627-4.585c.343-1.26.638-2.544.74-3.846.111-1.426.176-2.896-.148-4.289-.245-1.053-.808-2.012-1.331-2.958-.516-.933-1.775-2.662-1.775-2.662"/><path d="M148.353 377.587s1.506-3.638 2.219-5.473c.666-1.716 1.454-3.397 1.923-5.177.395-1.497.74-4.585.74-4.585"/><path d="M174.978 366.79s1.157 3.845 2.071 5.621c.682 1.326 1.639 2.491 2.515 3.698.805 1.11 2.514 3.254 2.514 3.254"/><path d="M198.348 370.192s-.243 2.374-.444 3.55c-.195 1.144-.752 2.242-.74 3.402.014 1.268.508 2.488.887 3.698.365 1.162 1.044 2.219 1.331 3.402.339 1.397.401 2.853.444 4.289.034 1.135.137 2.303-.148 3.402-.221.854-1.183 2.367-1.183 2.367"/><path d="M182.965 377.143s-.615 1.55-.74 2.367c-.179 1.17-.154 2.377 0 3.55.199 1.518.561 3.039 1.183 4.437.478 1.075 1.197 2.033 1.923 2.958.667.851 2.219 2.367 2.219 2.367"/><path d="M144.804 400.07s-2.869 2.354-4.142 3.698c-1.303 1.375-3.55 4.437-3.55 4.437"/><path d="M182.669 400.366s2.405 3.723 3.55 5.621c.97 1.608 2.81 4.881 2.81 4.881"/><path d="M153.678 287.805s-3.953-5.687-6.064-8.431c-1.752-2.276-3.619-4.462-5.473-6.656-1.602-1.895-4.881-5.621-4.881-5.621"/><path d="M194.502 265.026s-3.64 2.856-5.325 4.437c-1.882 1.766-3.551 3.746-5.325 5.621-1.678 1.774-3.493 3.427-5.029 5.325-1.583 1.956-4.289 6.212-4.289 6.212"/><path d="M189.88 465.225s-.49.867-.666 1.331c-.153.406-.209.842-.333 1.257l-.444 1.331c-.126.427-.245.858-.333 1.294-.067.33-.132.662-.148.998-.011.234.005.47.037.703.038.275.116.544.185.814.145.571.353 1.126.481 1.701.116.524.122 1.071.259 1.59.064.241.215.457.259.703.048.267.006.542 0 .814-.006.259-.072.52-.037.777.032.232.179.436.222.666.048.255.051.518.037.777-.013.237-.124.466-.111.703.025.472.308.9.37 1.368.037.281-.027.568 0 .851.031.325.114.643.185.961.077.347.215.682.259 1.035.044.355-.06.72 0 1.072.05.296.237.556.296.85.082.412.049.838.074 1.257.025.419.041.839.074 1.257.02.247.111.814.111.814"/><path d="M192.135 488.743s-.573.536-.851.814c-.252.253-.534.484-.74.777-.206.293-.33.637-.481.961-.249.536-.543 1.058-.703 1.627-.121.431-.167.884-.185 1.331-.017.419.043.839.074 1.257.031.42.021.846.111 1.257.118.537.266 1.085.555 1.553.206.334.488.631.814.85.22.149.74.296.74.296"/><path d="M191.285 497.84s.204.459.259.703l.074.814c.063.293.161.582.296.85.167.333.351.675.629.924.312.28.719.438 1.109.592.582.229 1.197.368 1.812.481.463.085.934.138 1.405.148.395.008.802.029 1.183-.074.426-.115.874-.278 1.183-.592.259-.263.357-.65.481-.998.161-.454.303-.925.333-1.405.02-.334-.037-.672-.111-.998-.066-.293-.156-.585-.296-.851-.165-.312-.412-.573-.629-.85-.226-.29-.443-.59-.703-.851-.328-.328-.778-.529-1.072-.887-.214-.26-.481-.887-.481-.887"/><path d="M199.605 501.057s.405.45.666.592c.371.201.804.265 1.22.333.439.071.887.056 1.331.074.493.02 1.018.213 1.479.037.269-.103.496-.336.629-.592.08-.155.062-.344.074-.518.021-.295.068-.6 0-.887-.057-.241-.258-.429-.333-.666-.049-.154-.049-.32-.074-.481-.025-.16-.033-.324-.074-.481-.053-.204-.132-.401-.222-.592l-.259-.444c-.093-.202-.143-.421-.222-.629-.081-.212-.137-.437-.259-.629-.108-.169-.322-.262-.407-.444-.079-.169-.074-.555-.074-.555"/><path d="M204.93 501.685s.666-.012.998-.037c.433-.033.888.007 1.294-.148.24-.091.447-.263.629-.444.15-.15.305-.316.37-.518.068-.211.039-.447 0-.666-.044-.246-.124-.492-.259-.703l-.259-.259c-.105-.155-.175-.336-.222-.518l-.037-.37c-.039-.155-.115-.3-.185-.444-.055-.114-.153-.21-.185-.333-.037-.143.018-.297 0-.444-.019-.151-.053-.303-.111-.444-.055-.133-.149-.246-.222-.37-.087-.147-.204-.282-.259-.444-.032-.094-.037-.296-.037-.296"/><path d="M207.962 500.946s.518.111.666.111c.148 0 .475-.074.703-.148.231-.075.475-.146.666-.296.159-.125.305-.289.37-.481.079-.233-.013-.493 0-.74.031-.594.189-1.18.185-1.775-.003-.422-.106-.837-.148-1.257-.03-.308.04-.637-.074-.924-.058-.147-.186-.256-.296-.37l-.259-.222"/><path d="M210.44 500.058s.641.094.961.074c.364-.023.739-.074 1.072-.222.307-.136.597-.336.814-.592.214-.252.359-.568.444-.887.06-.227.031-.468.037-.703.005-.197-.026-.396 0-.592.037-.279.164-.538.222-.814.069-.329.168-.663.148-.998-.017-.281-.144-.544-.222-.814-.093-.322-.176-.648-.296-.961-.116-.304-.242-.607-.407-.887-.116-.198-.26-.379-.407-.555-.207-.248-.42-.493-.666-.703l-.814-.555c-.268-.222-.507-.48-.74-.74-.211-.235-.369-.516-.592-.74-.235-.236-.533-.401-.777-.629-.172-.161-.328-.339-.481-.518-.234-.274-.476-.545-.666-.851-.166-.267-.282-.562-.407-.85-.189-.437-.286-.915-.518-1.331-.18-.323-.473-.572-.666-.887-.206-.339-.332-.721-.518-1.072-.173-.327-.372-.639-.555-.961l-.555-.998c-.218-.384-.666-1.146-.666-1.146"/><path d="M206.039 483.344s-.111-.54-.148-.814c-.056-.417-.04-.843-.111-1.257-.067-.389-.13-.788-.296-1.146-.153-.329-.419-.592-.629-.887l-.629-.887c-.268-.372-.597-.705-.814-1.109-.136-.254-.296-.814-.296-.814"/><path d="M204.338 478.426s-.069-.467-.074-.703c-.009-.407.013-.817.074-1.22.054-.364.141-.724.259-1.072.108-.319.325-.598.407-.924.12-.48.117-.985.111-1.479-.006-.495-.063-.991-.148-1.479-.07-.401-.136-.809-.296-1.183l-.444-.703c-.227-.492-.344-1.029-.481-1.553-.089-.341-.161-.688-.222-1.035-.14-.797-.26-1.598-.333-2.404-.051-.565-.074-1.553-.074-1.701 0-.148.059-1.505.111-2.256.048-.704.111-1.406.185-2.108.085-.803.181-1.605.296-2.404.097-.68.196-1.361.333-2.034.197-.97.666-2.736.703-2.884.037-.148.461-1.672.666-2.515.256-1.055.512-2.111.703-3.18.16-.894.222-1.803.37-2.699.116-.706.286-1.402.407-2.108.309-1.806.574-3.619.814-5.436.128-.972.23-1.947.333-2.921.12-1.133.223-2.268.333-3.402.099-1.023.134-2.054.296-3.069.151-.948.484-1.861.629-2.81.134-.88.145-1.775.222-2.662.083-.962.241-1.919.259-2.884.017-.926-.105-1.849-.148-2.773-.029-.641-.053-1.282-.074-1.923-.029-.887-.008-1.777-.074-2.662-.084-1.127-.238-2.248-.407-3.365-.124-.818-.289-1.628-.444-2.441-.153-.803-.312-1.604-.481-2.404-.141-.667-.279-1.335-.444-1.997-.324-1.303-.719-2.587-1.072-3.883-.225-.825-.48-1.643-.666-2.478-.185-.831-.224-1.692-.444-2.515-.196-.735-.569-1.413-.777-2.145-.165-.581-.212-1.191-.37-1.775-.081-.301-.236-.582-.296-.887-.107-.545-.087-1.109-.111-1.664-.027-.616-.037-1.232-.037-1.849 0-.641.017-1.282.037-1.923.027-.876.037-2.478.111-2.625.074-.148-.021-1.109-.037-1.664-.02-.727-.037-1.455-.074-2.182-.065-1.295-.201-2.587-.259-3.883-.048-1.084-.021-2.17-.074-3.254l-.259-3.402c-.031-.653-.031-1.306-.037-1.96-.006-.629-.072-1.261 0-1.886.074-.641.309-1.254.444-1.886.165-.773.307-1.551.444-2.33.214-1.217.408-2.438.592-3.661.2-1.329.395-2.659.555-3.994.176-1.476.276-2.96.444-4.437.198-1.741.478-3.472.666-5.214.181-1.673.444-4.881.444-5.029 0-.148.079-2.416.111-3.624l.074-3.402c.043-1.713.097-3.427.148-5.14.072-2.453.2-4.905.222-7.359.018-2.046-.016-4.093-.074-6.138-.031-1.11-.084-2.219-.148-3.328-.14-2.418-.249-4.841-.518-7.248-.163-1.462-.45-2.908-.666-4.363-.177-1.195-.334-2.393-.518-3.587-.082-.531-.219-1.055-.259-1.59-.069-.934.024-1.874.037-2.81.012-.826.058-1.652.037-2.478-.057-2.284-.206-4.568-.444-6.841-.099-.941-.259-1.875-.407-2.81-.114-.717-.225-1.434-.37-2.145-.484-2.382-1.148-4.724-1.664-7.1-.28-1.29-.523-2.587-.777-3.883-.315-1.613-.582-3.236-.924-4.844-.179-.842-.437-1.667-.592-2.515-.051-.281-.111-.703-.111-.85l.037-1.664c.015-.764.069-1.529.037-2.293-.031-.743-.147-1.479-.222-2.219-.122-1.208-.226-2.418-.37-3.624-.162-1.359-.329-2.718-.555-4.068-.178-1.066-.592-2.995-.629-3.18-.037-.185-.37-2.691-.592-4.031-.133-.804-.331-1.597-.444-2.404-.089-.638-.144-1.28-.185-1.923-.05-.788-.103-1.578-.074-2.367.035-.941.188-1.875.296-2.81.102-.889.255-1.771.333-2.662.087-.996.092-1.997.148-2.995.044-.777.082-1.554.148-2.33.099-1.161.308-2.312.37-3.476.046-.874-.011-1.75 0-2.625.012-.986.072-1.972.074-2.958.001-.579-.075-1.16-.037-1.738.021-.324.031-.659.148-.961l.148-.222c.129-.425.013-.888 0-1.331-.049-1.728-.218-3.45-.296-5.177-.084-1.873-.133-3.747-.185-5.621-.045-1.615-.184-3.231-.111-4.844.02-.434.066-.868.148-1.294.106-.552.211-1.115.444-1.627.239-.526.642-.961.961-1.442.433-.652.961-1.251 1.294-1.96.324-.688.666-2.182.666-2.182"/><path d="M198.755 200.758s.082 1.357.148 2.034c.108 1.112.232 2.224.407 3.328.212 1.339.51 2.664.777 3.994.215 1.074.46 2.141.666 3.217l.74 4.215c.195 1.026.413 2.047.629 3.069.192.913.492 1.808.592 2.736.071.662.023 1.332 0 1.997-.025.704-.08 1.407-.148 2.108-.058.593-.212 1.179-.222 1.775-.009.545.036 1.094.148 1.627.072.343.277.652.333.998.042.256-.003.518 0 .777.006.53-.013 1.062.037 1.59.035.373.088.747.185 1.109.118.445.331.859.481 1.294.093.269.195.536.259.814.132.571.185 1.157.259 1.738.059.467.024.951.148 1.405.203.745.622 1.414.961 2.108.385.787.832 1.544 1.22 2.33.53 1.073 1.035 2.158 1.516 3.254.546 1.245 1.011 2.525 1.553 3.772.46 1.057.966 2.093 1.442 3.143.585 1.292 1.222 2.562 1.738 3.883.62 1.587 1.08 3.231 1.627 4.844.477 1.407 1.021 2.791 1.442 4.215.158.536.231 1.096.407 1.627.172.519.408 1.015.629 1.516.247.56.51 1.113.777 1.664l.407.814c.203.448.357.918.555 1.368.208.475.417.95.666 1.405l.74 1.183c.127.238.276.475.333.74.059.277.003.567 0 .851-.006.604-.055 1.208-.037 1.812.028.915.128 1.826.222 2.736.102.989.174 1.984.37 2.958.154.765.353 1.525.629 2.256.27.717.676 1.376.998 2.071.42.906.81 1.826 1.22 2.736.245.543.513 1.076.74 1.627.23.559.374 1.153.629 1.701.179.385.475.713.629 1.109l.185.814c.111.311.362.567.444.887.08.311.015.642.037.961.034.482.123.96.148 1.442.034.665-.029 1.332 0 1.997l.074.85c.028.788-.031 1.578-.037 2.367-.005.616-.019 1.233 0 1.849.012.407-.013.822.074 1.22.087.4.313.758.444 1.146.114.34.17.699.296 1.035.081.217.157.443.296.629.168.224.379.429.629.555.158.08.341.107.518.111.225.005.476.01.666-.111.165-.104.229-.316.333-.481.106-.168.245-.326.296-.518.066-.25.003-.518 0-.777-.012-.912-.072-1.824-.074-2.736-.001-.53.023-1.06.037-1.59l.037-1.22c.012-.382-.047-.773.037-1.146l.259-.592c.105-.383.133-.786.148-1.183.018-.481-.003-.966-.074-1.442l-.148-.592c-.015-.122-.034-.251 0-.37.032-.112.083-.239.185-.296.054-.03.128-.024.185 0 .097.04.168.132.222.222.066.11.075.246.111.37l.185.666c.086.355.179.71.222 1.072.048.404.027.813.037 1.22.015.592-.008 1.185.037 1.775.029.372.066.745.148 1.109.062.278.161.546.259.814.133.363.329.703.444 1.072.194.626.297 1.277.407 1.923l.222 1.738c.108.622.251 1.238.407 1.849.153.597.357 1.18.518 1.775.12.442.159.908.333 1.331.12.291.261.588.481.814.162.166.37.298.592.37.176.057.37.051.555.037.227-.017.447-.085.666-.148.214-.061.448-.093.629-.222.243-.174.463-.419.555-.703.091-.282-.025-.592-.037-.887-.013-.32.02-.646-.037-.961-.063-.345-.252-.657-.333-.998-.158-.667-.168-1.361-.296-2.034l-.444-1.886c-.112-.587-.171-1.184-.259-1.775-.06-.407-.149-.81-.185-1.22l-.037-1.405c-.037-.459-.072-.922-.185-1.368-.094-.371-.299-.706-.407-1.072l-.222-1.035c-.06-.214-.193-.408-.222-.629-.021-.159-.077-.367.037-.481.114-.114.321-.051.481-.037.101.009.217.009.296.074.179.147.223.409.296.629.118.358.151.739.222 1.109.116.603.165 1.221.333 1.812.083.293.235.562.333.85.099.292.215.582.259.887v.555c.069.364.252.698.407 1.035.198.431.48.821.666 1.257.248.585.404 1.205.591 1.812.156.503.333 1.001.444 1.516.094.438.1.891.185 1.331.106.549.294 1.079.407 1.627.108.526.135 1.068.259 1.59.057.239.101.489.222.703.147.258.343.504.592.666.239.155.529.246.814.259.341.015.706-.046.998-.222.292-.175.494-.482.666-.777.165-.283.281-.601.333-.924.068-.426-.008-.864-.037-1.294-.039-.581-.101-1.161-.185-1.738-.117-.806-.269-1.608-.444-2.404-.224-1.019-.531-2.018-.777-3.032-.196-.811-.274-1.655-.555-2.441-.167-.467-.455-.882-.666-1.331-.234-.5-.454-1.006-.666-1.516-.285-.685-.569-1.371-.814-2.071-.111-.317-.26-.628-.296-.961-.016-.148-.025-.309.037-.444.073-.158.209-.303.37-.37.125-.052.279-.044.407 0 .207.072.377.238.518.407.287.343.451.773.629 1.183.274.633.456 1.303.666 1.96.118.368.166.761.333 1.109.188.391.519.699.74 1.072.21.356.388.731.555 1.109.208.471.393.953.555 1.442l.481 1.738c.229.713.488 1.417.777 2.108.246.59.53 1.165.814 1.738.142.287.216.626.444.85.157.155.38.235.592.296.238.069.494.107.74.074.236-.032.47-.123.666-.259.229-.16.414-.387.555-.629.151-.259.249-.554.296-.85.08-.512.018-1.038-.037-1.553-.056-.524-.167-1.042-.296-1.553-.13-.514-.321-1.01-.481-1.516-.198-.628-.381-1.262-.592-1.886-.197-.584-.449-1.149-.629-1.738l-.37-1.479c-.158-.514-.358-1.015-.555-1.516-.279-.709-.614-1.396-.887-2.108l-.555-1.59c-.238-.613-.582-1.184-.777-1.812-.093-.3-.127-.616-.185-.924-.079-.418-.163-.836-.222-1.257-.066-.466-.061-.942-.148-1.405-.052-.276-.161-.539-.222-.814-.111-.501-.194-1.008-.259-1.516-.074-.577-.166-1.157-.148-1.738.018-.585.176-1.158.259-1.738l.148-1.072.111-.924"/><path d="M228.189 279.374s.583 1.338.961 1.96c.549.904 1.109 1.833 1.886 2.551.598.553 1.327.963 2.071 1.294.773.345 1.612.528 2.441.703.901.189 1.82.289 2.736.37.59.052 1.183.062 1.775.074.296.006.887 0 .887 0"/><path d="M242.056 284.957s.399-.042.592 0c.291.063.569.2.814.37.287.199.49.497.74.74.438.425.904.821 1.331 1.257.373.38.78.738 1.072 1.183.164.249.219.556.37.814.232.396.497.777.814 1.109.23.241.514.424.777.629.486.379.925.839 1.479 1.109.505.247 1.076.333 1.627.444.463.093.933.196 1.405.185.413-.01.851-.035 1.22-.222.272-.138.499-.373.666-.629.121-.186.21-.407.222-.629.012-.215-.032-.447-.148-.629-.118-.185-.341-.277-.518-.407-.337-.246-.694-.463-1.035-.703-.274-.193-.581-.35-.814-.592-.277-.289-.454-.659-.666-.998-.286-.46-.516-.953-.814-1.405-.227-.346-.469-.685-.74-.998-.25-.29-.552-.533-.814-.814-.435-.466-.851-.95-1.257-1.442-.319-.386-.668-.753-.924-1.183l-.518-1.183c-.258-.44-.602-.825-.924-1.22-.248-.305-.503-.605-.777-.887-.164-.169-.317-.358-.518-.481-.403-.246-.886-.326-1.331-.481-.589-.205-1.59-.555-1.775-.592-.185-.037-1.227-.579-1.849-.85-.942-.412-1.895-.797-2.847-1.183-.59-.239-1.187-.46-1.775-.703-.347-.143-.732-.222-1.035-.444-.198-.144-.33-.362-.481-.555-.224-.285-.453-.57-.629-.887-.078-.14-.15-.287-.185-.444l-.037-.961c-.097-.454-.356-.859-.518-1.294-.264-.709-.465-1.44-.74-2.145-.224-.576-.552-1.112-.74-1.701-.145-.456-.184-.94-.296-1.405-.188-.782-.389-1.562-.629-2.33-.23-.737-.551-1.444-.777-2.182-.246-.803-.456-1.619-.629-2.441-.188-.892-.329-1.795-.444-2.699-.122-.958-.202-1.921-.259-2.884-.077-1.305-.06-2.614-.111-3.92-.058-1.492-.052-2.991-.222-4.474-.118-1.033-.349-2.05-.555-3.069-.28-1.387-.647-2.754-.924-4.142-.208-1.043-.321-2.105-.555-3.143-.163-.723-.36-1.44-.592-2.145-.215-.652-.462-1.295-.74-1.923-.256-.58-.553-1.141-.85-1.701-.484-.912-1.087-1.761-1.516-2.699-.469-1.025-.749-2.126-1.146-3.18-.332-.88-.766-1.724-1.035-2.625-.4-1.339-.85-3.883-.85-4.105 0-.222-.394-2.909-.592-4.363-.271-1.997-.602-3.986-.814-5.99-.104-.983-.121-1.975-.222-2.958-.107-1.039-.272-2.071-.407-3.106-.099-.764-.174-1.532-.296-2.293-.228-1.425-.608-2.824-.814-4.252-.127-.883-.209-1.772-.259-2.662-.049-.874-.068-1.751-.037-2.625.031-.865.099-1.731.222-2.588.194-1.357.581-2.68.814-4.031.207-1.203.379-2.412.518-3.624.147-1.278.283-2.56.333-3.846.05-1.306.012-2.614-.037-3.92-.049-1.308-.153-2.615-.259-3.92-.156-1.913-.387-3.819-.555-5.732-.069-.788-.008-1.595-.185-2.367-.151-.658-.416-1.293-.74-1.886-.262-.48-.61-.911-.961-1.331-.296-.355-.619-.689-.961-.998-.86-.777-1.78-1.49-2.736-2.145-.639-.437-1.284-.883-1.997-1.183-.612-.258-1.28-.354-1.923-.518-1.278-.325-2.587-.533-3.846-.924-1.084-.337-2.137-.773-3.18-1.22-1.003-.43-1.967-.947-2.958-1.405-1.447-.669-2.933-1.256-4.363-1.96-2.573-1.266-5.108-2.615-7.58-4.068-1.161-.683-2.274-1.444-3.402-2.182-.595-.389-1.775-1.183-1.775-1.183"/><path d="M182.188 137.896s-.872-.416-1.257-.703c-.496-.37-.946-.81-1.331-1.294-.252-.316-.454-.671-.629-1.035-.374-.78-.656-1.607-.887-2.441-.172-.617-.37-1.886-.37-1.886"/><path d="M177.455 135.603s-.174-1.774-.148-2.662c.022-.756.18-1.503.259-2.256l.185-1.96c.186-1.728.447-3.448.629-5.177.132-1.255.165-2.521.333-3.772.166-1.241.388-2.477.666-3.698.195-.86.484-1.697.703-2.551.173-.675.343-1.351.481-2.034l.037-.222"/><path d="M177.085 116.263s.799-2.027 1.22-3.032c.369-.881.726-1.768 1.146-2.625.272-.555.674-1.047.887-1.627.23-.626.221-1.319.407-1.96.117-.405.444-1.183.444-1.183"/><path d="M179.6 112.048s.303-.562.555-.74c.137-.096.315-.123.481-.148h1.035c.456-.062.91-.183 1.331-.37.4-.178.794-.399 1.109-.703.345-.332.578-.767.814-1.183.366-.648.659-1.338.924-2.034.147-.386.282-.78.37-1.183.103-.473.073-.971.185-1.442.103-.432.295-.838.444-1.257.197-.555.454-1.092.592-1.664.198-.822.337-1.669.333-2.515-.002-.436-.237-1.765-.237-1.765"/><path d="M180.326 110.166s-.403.53-.523.837c-.136.347-.15.73-.209 1.098-.084.521-.118 1.049-.209 1.569-.141.808-.341 1.605-.523 2.406-.151.664-.28 1.334-.471 1.987-.207.709-.406 1.429-.732 2.092-.367.746-.882 1.411-1.36 2.092-.515.733-1.025 1.475-1.621 2.144-.722.81-1.526 1.547-2.353 2.249-.798.676-1.597 1.372-2.51 1.883-.703.393-1.489.619-2.249.889-.706.251-1.405.555-2.144.68-.602.102-1.222.101-1.83.052-.743-.059-1.47-.252-2.196-.418-.915-.21-1.849-.381-2.719-.732-.702-.283-1.386-.639-1.987-1.098-.696-.531-1.229-1.247-1.83-1.883-.814-.86-1.698-1.665-2.406-2.615-.448-.602-.857-1.244-1.15-1.935-.283-.665-.393-1.392-.575-2.092-.276-1.06-.604-2.11-.784-3.19-.191-1.139-.22-2.3-.314-3.451l-.052-.732"/><path d="M150.989 115.134s-.669-1.582-1.046-2.353c-.243-.497-.547-.964-.784-1.464-.389-.819-.784-1.642-1.046-2.51-.185-.612-.284-1.249-.366-1.883-.069-.537-.014-1.087-.105-1.621-.054-.321-.261-.941-.261-.941"/><path d="M149.42 111.683s-.599-.561-.941-.784l-.209-.105c-.236-.065-.493-.002-.732-.052-.308-.064-.625-.143-.889-.314-.404-.262-.709-.658-.994-1.046-.425-.579-.773-1.219-1.046-1.883-.172-.419-.255-.869-.366-1.307-.154-.607-.296-1.217-.418-1.83l-.314-1.83c-.077-.386-.206-.761-.261-1.15-.127-.899-.217-1.813-.157-2.719.03-.461.17-.907.261-1.36l.209-.994"/><path d="M181.268 106.663c.36.163.661-.461.889-.784.27-.384.39-.857.523-1.307.181-.613.305-1.246.366-1.883.037-.382-.063-.772 0-1.15.106-.636.369-1.24.628-1.83.294-.672.644-1.322 1.046-1.935.341-.519.7-1.038 1.15-1.464.155-.146.311-.379.523-.366.234.014.348.314.523.471.156.14.307.287.471.418.117.094.243.347.366.261.282-.194-.199-.657-.261-.994-.089-.483-.179-.974-.157-1.464.04-.888.414-1.733.523-2.615.134-1.091.05-2.2.157-3.295.139-1.421.523-2.812.628-4.236.064-.869.1-1.749 0-2.615-.132-1.138-.432-2.257-.784-3.347-.39-1.204-.9-2.371-1.464-3.504-.648-1.301-1.279-2.639-2.196-3.765-.725-.89-1.674-1.574-2.562-2.301-1.177-.962-2.345-1.958-3.661-2.719-1.135-.657-2.379-1.112-3.608-1.569-1.54-.572-3.082-1.217-4.707-1.464-1.499-.228-3.033 0-4.55 0-1.569 0-3.146-.159-4.707 0-1.204.123-2.42.315-3.556.732-1.362.5-2.657 1.221-3.818 2.092-.71.532-1.287 1.225-1.883 1.883-.757.835-1.494 1.694-2.144 2.615-.564.798-1.048 1.652-1.517 2.51-.493.903-.903 1.849-1.36 2.772-.571 1.153-1.291 2.241-1.726 3.451-.29.808-.357 1.68-.575 2.51-.218.827-.565 1.62-.732 2.458-.196.98-.243 1.984-.314 2.981-.066.922-.117 1.847-.105 2.772.011.821.14 1.637.157 2.458.015.75-.216 1.517-.052 2.249.128.571.473 1.074.784 1.569.212.336.478.636.732.941.419.503 1.001.886 1.307 1.464.235.445.232.979.366 1.464.112.404.31.787.366 1.203.084.622-.083 1.256-.052 1.883.027.561.019 1.145.209 1.673.077.214.216.405.366.575.18.204.4.673.628.523.456-.301-.409-1.026-.471-1.569-.061-.538-.013-1.093.105-1.621.135-.603.471-1.144.68-1.726.267-.742.666-1.463.732-2.249.08-.948-.416-1.872-.418-2.824-.002-.616.125-1.229.261-1.83.142-.624.459-1.201.575-1.83.156-.841.157-2.301.157-2.562 0-.261.575-3.19.575-3.399 0-.209.307-1.386.575-2.039.507-1.234 1.032-2.522 1.935-3.504.766-.833 1.767-1.479 2.824-1.883.806-.308 1.701-.405 2.562-.366.68.031 1.341.255 1.987.471.704.235 1.322.703 2.039.889.695.181 1.427.243 2.144.209.727-.035 1.422-.327 2.144-.418.866-.11 1.743-.109 2.615-.157.697-.038 1.778-.105 2.092-.105l2.353.052c.261 0 1.133.489 1.673.784.687.376 1.407.728 1.987 1.255.506.46.939 1.015 1.255 1.621.296.567.443 1.205.575 1.83.163.772.165 1.57.261 2.353.08.646.205 1.287.261 1.935.076.869-.124 1.773.105 2.615.155.572.784 1.36.837 1.569.052.209.394.856.523 1.307.136.477.254.969.261 1.464.011.722-.275 1.423-.314 2.144-.047.888.011 1.782.105 2.667.097.915.32 1.812.471 2.719.109.662.261 1.319.314 1.987.023.295-.27.767 0 .889z"/><path d="M156.95 116.651s.626.094.941.105c.384.013.768-.022 1.15-.052l1.36-.157c.435-.034.874-.097 1.307-.052l.628.157c.345.051.697.044 1.046.052.383.01.767.009 1.15 0 .384-.009.767-.072 1.15-.052.352.018.697.108 1.046.157.4.056.801.108 1.203.157l.941.105"/><path d="M158.049 117.383s.824.545 1.255.784c.661.367 1.317.77 2.039.994.572.177 1.179.24 1.778.261.699.025 1.412.008 2.092-.157.478-.116.91-.376 1.36-.575.457-.202.91-.411 1.36-.628l.628-.314"/><path d="M157.735 115.866s.83-.271 1.255-.366c.775-.173 1.565-.274 2.353-.366.66-.077 1.323-.139 1.987-.157.715-.019 1.43.023 2.144.052.297.012.598-.004.889.052.433.083.859.225 1.255.418.508.249 1.412.941 1.412.941"/><path d="M160.925 110.376s-.552-.227-.68-.471c-.073-.139-.103-.352 0-.471.081-.093.243-.065.366-.052.258.026.503.14.732.261.286.152.547.354.784.575.217.202.342.496.575.68.245.193.527.379.837.418.248.031.522-.022.732-.157.22-.141.309-.422.471-.628.153-.195.271-.429.471-.575.151-.111.349-.139.523-.209.174-.07.336-.19.523-.209.194-.019.403.014.575.105.131.069.265.174.314.314.052.149.038.341-.052.471-.111.16-.523.261-.523.261"/><path d="M167.305 110.846s.749-.058 1.046-.261c.299-.205.488-.554.628-.889.116-.278.166-.588.157-.889-.011-.376-.124-.748-.261-1.098-.117-.298-.471-.837-.471-.837"/><path d="M160.088 110.689s-.62-.066-.889-.209c-.272-.145-.523-.362-.68-.628-.147-.247-.204-.549-.209-.837-.006-.338.06-.69.209-.994.201-.411.889-1.046.889-1.046"/><path d="M166.363 98.661s-.37 1.068-.471 1.621c-.119.654-.138 1.323-.157 1.987-.021.767-.087 1.547.052 2.301.094.51.523 1.464.523 1.464"/><path d="M162.075 98.871s-.075 1.641-.157 2.458c-.077.77-.184 1.538-.314 2.301-.117.684-.418 2.039-.418 2.039"/><path d="M168.455 100.806s-.003-.699.157-.994c.213-.39.636-.625.994-.889.245-.181.494-.379.784-.471.483-.152 1.01-.116 1.517-.105.754.018 1.504.139 2.249.261.493.081 1.004.12 1.464.314.463.196 1.255.837 1.255.837"/><path d="M168.821 99.655s.172.346.314.471c.175.155.407.235.628.314.438.157.895.307 1.36.314.533.008 1.064-.141 1.569-.314.369-.127.764-.253 1.046-.523.13-.124.216-.297.261-.471.018-.068.021-.143 0-.209-.064-.203-.366-.523-.366-.523"/><path d="M172.849 98.466c.281.665-.03 1.432-.695 1.713-.665.281-1.432-.03-1.713-.695-.142-.335-.137-.714.012-1.046" opacity=".99" stroke-linecap="round"/><path d="M172.096 98.382c.236.308.178.749-.129.985-.308.236-.749.178-.985-.129-.196-.255-.194-.612.006-.864" opacity=".99" stroke-linecap="round"/><path d="M159.591 100.57s.017-.354-.026-.523c-.054-.215-.175-.41-.288-.601-.13-.221-.253-.457-.445-.628-.178-.158-.413-.238-.628-.34-.247-.118-.491-.257-.758-.314-.316-.067-.645-.032-.967-.026-.533.01-1.068.026-1.595.105-.452.067-.889.208-1.334.314l-1.412.34"/><path d="M153.996 98.531s-.188.113-.209.209c-.016.073.029.153.078.209.182.208.48.278.732.392.364.165.737.319 1.124.418.589.15 1.2.198 1.804.261.269.028.541.072.811.052.124-.009.256-.019.366-.078.076-.041.139-.109.183-.183.064-.109.102-.239.105-.366.002-.144-.105-.418-.105-.418"/><path d="M158.31 98.538c.015.684-.454 1.266-1.094 1.418m-.948-.101c-.468-.225-.795-.698-.808-1.253-.003-.142.015-.284.054-.421" opacity=".99" stroke-linecap="round"/><path d="M157.367 98.141c.247.306.2.755-.106 1.002s-.755.2-1.002-.106c-.211-.261-.211-.633-.001-.895" opacity=".99" stroke-linecap="round"/><path d="M167.723 96.883c.441.201.803-.559 1.255-.732.648-.248 1.349-.348 2.039-.418.572-.058 1.151-.03 1.726 0 .665.035 1.336.071 1.987.209.717.153 1.374.531 2.092.68.36.075.826.352 1.098.105.271-.246.068-.739 0-1.098-.098-.515-.276-1.034-.575-1.464-.254-.365-.585-.715-.994-.889-.434-.185-.941-.075-1.412-.105-.697-.043-1.398-.179-2.092-.105-.736.078-1.422.414-2.144.575-.674.151-1.454-.001-2.039.366-.402.252-.627.725-.837 1.15-.136.277-.246.581-.261.889-.014.283-.101.719.157.837z"/><path d="M161.552 96.517c.329-.558-.353-1.294-.784-1.778-.39-.437-.988-.636-1.517-.889-.622-.297-1.268-.555-1.935-.732-.648-.172-1.318-.272-1.987-.314-.522-.032-1.052-.029-1.569.052-.752.118-1.499.322-2.196.628-.337.148-.729.275-.941.575-.144.204-.139.483-.157.732-.017.244-.111.55.052.732.189.212.555.126.837.157.52.057 1.049.108 1.569.052.429-.046.833-.227 1.255-.314.432-.088.867-.174 1.307-.209.487-.039.98-.061 1.464 0 .768.097 1.524.305 2.249.575.329.123.62.33.941.471.273.119.542.274.837.314.191.026.478.114.575-.052z"/><path d="M143.348 184.663c.554 1.041-.07 2.457-1.396 3.163-1.325.706-2.849.435-3.404-.605-.554-1.041.07-2.457 1.396-3.163 1.325-.706 2.849-.435 3.404.605z" opacity=".99" stroke-linecap="round"/><path d="M141.471 186.386c0 .477-.386.863-.863.863s-.863-.386-.863-.863.386-.863.863-.863.863.386.863.863z" opacity=".99" stroke-linecap="round"/><path d="M189.186 187.441c-.635.923-2.143.989-3.368.146-1.225-.842-1.704-2.274-1.069-3.197s2.143-.989 3.368-.146c1.225.842 1.704 2.274 1.069 3.197z" opacity=".99" stroke-linecap="round"/><path d="M188.17 186.36c0 .52-.421.941-.941.941s-.941-.421-.941-.941.421-.941.941-.941.941.421.941.941z" opacity=".99" stroke-linecap="round"/><path d="M158.609 299.274s3.314 2.546 5.268 2.573c1.974.027 5.391-2.45 5.391-2.45"/><path d="M165.206 241.742c0 .909-.737 1.646-1.646 1.646-.909 0-1.646-.737-1.646-1.646 0-.909.737-1.646 1.646-1.646.909 0 1.646.737 1.646 1.646z" opacity=".99" stroke-linecap="round"/></g></g></svg>